%TF.GenerationSoftware,KiCad,Pcbnew,(5.99.0-12750-ge81b516a82)*%
%TF.CreationDate,2021-11-10T18:22:51+01:00*%
%TF.ProjectId,PrecisionCurrentSource,50726563-6973-4696-9f6e-43757272656e,A*%
%TF.SameCoordinates,Original*%
%TF.FileFunction,Legend,Top*%
%TF.FilePolarity,Positive*%
%FSLAX46Y46*%
G04 Gerber Fmt 4.6, Leading zero omitted, Abs format (unit mm)*
G04 Created by KiCad (PCBNEW (5.99.0-12750-ge81b516a82)) date 2021-11-10 18:22:51*
%MOMM*%
%LPD*%
G01*
G04 APERTURE LIST*
%ADD10C,0.300000*%
%ADD11C,0.120000*%
%ADD12C,0.150000*%
G04 APERTURE END LIST*
D10*
X145100000Y-127500000D02*
X145500000Y-127900000D01*
X146900000Y-127500000D02*
X145100000Y-127500000D01*
X144500000Y-127500000D02*
X140500000Y-127500000D01*
X145100000Y-127500000D02*
X145500000Y-127100000D01*
X147500000Y-127500000D02*
X151500000Y-127500000D01*
X147500000Y-127500000D02*
G75*
G03*
X147500000Y-127500000I-1500000J0D01*
G01*
X134821428Y-89278571D02*
X134821428Y-87778571D01*
X135678571Y-89278571D02*
X135035714Y-88421428D01*
X135678571Y-87778571D02*
X134821428Y-88635714D01*
X136535714Y-89278571D02*
X136392857Y-89207142D01*
X136321428Y-89135714D01*
X136250000Y-88992857D01*
X136250000Y-88564285D01*
X136321428Y-88421428D01*
X136392857Y-88350000D01*
X136535714Y-88278571D01*
X136750000Y-88278571D01*
X136892857Y-88350000D01*
X136964285Y-88421428D01*
X137035714Y-88564285D01*
X137035714Y-88992857D01*
X136964285Y-89135714D01*
X136892857Y-89207142D01*
X136750000Y-89278571D01*
X136535714Y-89278571D01*
X137678571Y-88278571D02*
X137678571Y-89278571D01*
X137678571Y-88421428D02*
X137750000Y-88350000D01*
X137892857Y-88278571D01*
X138107142Y-88278571D01*
X138250000Y-88350000D01*
X138321428Y-88492857D01*
X138321428Y-89278571D01*
X138964285Y-89207142D02*
X139107142Y-89278571D01*
X139392857Y-89278571D01*
X139535714Y-89207142D01*
X139607142Y-89064285D01*
X139607142Y-88992857D01*
X139535714Y-88850000D01*
X139392857Y-88778571D01*
X139178571Y-88778571D01*
X139035714Y-88707142D01*
X138964285Y-88564285D01*
X138964285Y-88492857D01*
X139035714Y-88350000D01*
X139178571Y-88278571D01*
X139392857Y-88278571D01*
X139535714Y-88350000D01*
X140035714Y-88278571D02*
X140607142Y-88278571D01*
X140250000Y-87778571D02*
X140250000Y-89064285D01*
X140321428Y-89207142D01*
X140464285Y-89278571D01*
X140607142Y-89278571D01*
X141750000Y-89278571D02*
X141750000Y-88492857D01*
X141678571Y-88350000D01*
X141535714Y-88278571D01*
X141250000Y-88278571D01*
X141107142Y-88350000D01*
X141750000Y-89207142D02*
X141607142Y-89278571D01*
X141250000Y-89278571D01*
X141107142Y-89207142D01*
X141035714Y-89064285D01*
X141035714Y-88921428D01*
X141107142Y-88778571D01*
X141250000Y-88707142D01*
X141607142Y-88707142D01*
X141750000Y-88635714D01*
X142464285Y-88278571D02*
X142464285Y-89278571D01*
X142464285Y-88421428D02*
X142535714Y-88350000D01*
X142678571Y-88278571D01*
X142892857Y-88278571D01*
X143035714Y-88350000D01*
X143107142Y-88492857D01*
X143107142Y-89278571D01*
X143607142Y-88278571D02*
X144178571Y-88278571D01*
X143821428Y-87778571D02*
X143821428Y-89064285D01*
X143892857Y-89207142D01*
X144035714Y-89278571D01*
X144178571Y-89278571D01*
X144607142Y-89207142D02*
X144750000Y-89278571D01*
X145035714Y-89278571D01*
X145178571Y-89207142D01*
X145250000Y-89064285D01*
X145250000Y-88992857D01*
X145178571Y-88850000D01*
X145035714Y-88778571D01*
X144821428Y-88778571D01*
X144678571Y-88707142D01*
X144607142Y-88564285D01*
X144607142Y-88492857D01*
X144678571Y-88350000D01*
X144821428Y-88278571D01*
X145035714Y-88278571D01*
X145178571Y-88350000D01*
X145678571Y-88278571D02*
X146250000Y-88278571D01*
X145892857Y-87778571D02*
X145892857Y-89064285D01*
X145964285Y-89207142D01*
X146107142Y-89278571D01*
X146250000Y-89278571D01*
X146750000Y-89278571D02*
X146750000Y-88278571D01*
X146750000Y-88564285D02*
X146821428Y-88421428D01*
X146892857Y-88350000D01*
X147035714Y-88278571D01*
X147178571Y-88278571D01*
X147892857Y-89278571D02*
X147750000Y-89207142D01*
X147678571Y-89135714D01*
X147607142Y-88992857D01*
X147607142Y-88564285D01*
X147678571Y-88421428D01*
X147750000Y-88350000D01*
X147892857Y-88278571D01*
X148107142Y-88278571D01*
X148250000Y-88350000D01*
X148321428Y-88421428D01*
X148392857Y-88564285D01*
X148392857Y-88992857D01*
X148321428Y-89135714D01*
X148250000Y-89207142D01*
X148107142Y-89278571D01*
X147892857Y-89278571D01*
X149035714Y-89278571D02*
X149035714Y-88278571D01*
X149035714Y-88421428D02*
X149107142Y-88350000D01*
X149250000Y-88278571D01*
X149464285Y-88278571D01*
X149607142Y-88350000D01*
X149678571Y-88492857D01*
X149678571Y-89278571D01*
X149678571Y-88492857D02*
X149750000Y-88350000D01*
X149892857Y-88278571D01*
X150107142Y-88278571D01*
X150250000Y-88350000D01*
X150321428Y-88492857D01*
X150321428Y-89278571D01*
X151678571Y-88278571D02*
X151678571Y-89778571D01*
X151678571Y-89207142D02*
X151535714Y-89278571D01*
X151250000Y-89278571D01*
X151107142Y-89207142D01*
X151035714Y-89135714D01*
X150964285Y-88992857D01*
X150964285Y-88564285D01*
X151035714Y-88421428D01*
X151107142Y-88350000D01*
X151250000Y-88278571D01*
X151535714Y-88278571D01*
X151678571Y-88350000D01*
X153035714Y-88278571D02*
X153035714Y-89278571D01*
X152392857Y-88278571D02*
X152392857Y-89064285D01*
X152464285Y-89207142D01*
X152607142Y-89278571D01*
X152821428Y-89278571D01*
X152964285Y-89207142D01*
X153035714Y-89135714D01*
X154321428Y-89207142D02*
X154178571Y-89278571D01*
X153892857Y-89278571D01*
X153750000Y-89207142D01*
X153678571Y-89064285D01*
X153678571Y-88492857D01*
X153750000Y-88350000D01*
X153892857Y-88278571D01*
X154178571Y-88278571D01*
X154321428Y-88350000D01*
X154392857Y-88492857D01*
X154392857Y-88635714D01*
X153678571Y-88778571D01*
X155250000Y-89278571D02*
X155107142Y-89207142D01*
X155035714Y-89064285D01*
X155035714Y-87778571D01*
X156035714Y-89278571D02*
X155892857Y-89207142D01*
X155821428Y-89064285D01*
X155821428Y-87778571D01*
X157178571Y-89207142D02*
X157035714Y-89278571D01*
X156750000Y-89278571D01*
X156607142Y-89207142D01*
X156535714Y-89064285D01*
X156535714Y-88492857D01*
X156607142Y-88350000D01*
X156750000Y-88278571D01*
X157035714Y-88278571D01*
X157178571Y-88350000D01*
X157250000Y-88492857D01*
X157250000Y-88635714D01*
X156535714Y-88778571D01*
D11*
%TO.C,U6*%
X147100000Y-123000000D02*
X147100000Y-123300000D01*
%TO.C,U5*%
X157600000Y-95700000D02*
X157600000Y-96000000D01*
D12*
%TO.C,U3*%
X143800000Y-102700000D02*
X143800000Y-103700000D01*
%TO.C,U4*%
X148600000Y-110900000D02*
X148600000Y-111900000D01*
%TO.C,U2*%
X153400000Y-102700000D02*
X153400000Y-103700000D01*
%TD*%
M02*
