%TF.GenerationSoftware,KiCad,Pcbnew,(5.99.0-12750-ge81b516a82)*%
%TF.CreationDate,2021-11-10T18:22:51+01:00*%
%TF.ProjectId,PrecisionCurrentSource,50726563-6973-4696-9f6e-43757272656e,A*%
%TF.SameCoordinates,Original*%
%TF.FileFunction,Copper,L3,Inr*%
%TF.FilePolarity,Positive*%
%FSLAX46Y46*%
G04 Gerber Fmt 4.6, Leading zero omitted, Abs format (unit mm)*
G04 Created by KiCad (PCBNEW (5.99.0-12750-ge81b516a82)) date 2021-11-10 18:22:51*
%MOMM*%
%LPD*%
G01*
G04 APERTURE LIST*
%TA.AperFunction,ComponentPad*%
%ADD10C,7.000000*%
%TD*%
%TA.AperFunction,ComponentPad*%
%ADD11C,1.800000*%
%TD*%
%TA.AperFunction,ViaPad*%
%ADD12C,0.500000*%
%TD*%
G04 APERTURE END LIST*
D10*
%TO.N,+1V5*%
%TO.C,H1*%
X155550000Y-127500000D03*
%TD*%
%TO.N,Net-(H2-Pad1)*%
%TO.C,H2*%
X136500000Y-127500000D03*
%TD*%
D11*
%TO.N,Net-(R3-Pad1)*%
%TO.C,SW1*%
X151080000Y-97040000D03*
%TO.N,Net-(H2-Pad1)*%
X146000000Y-97040000D03*
%TO.N,Net-(R5-Pad1)*%
X140920000Y-97040000D03*
%TO.N,+BATT*%
X151080000Y-91960000D03*
%TO.N,Net-(BT1-Pad1)*%
X146000000Y-91960000D03*
%TO.N,+BATT*%
X140920000Y-91960000D03*
%TD*%
D12*
%TO.N,GND*%
X130400000Y-110200000D03*
X131500000Y-115700000D03*
X144400000Y-122000000D03*
X142800000Y-99100000D03*
X149200000Y-99100000D03*
X147600000Y-104900000D03*
X134900000Y-119900000D03*
X134900000Y-102000000D03*
X136300000Y-99100000D03*
X157100000Y-118400000D03*
X144200000Y-123000000D03*
X157100000Y-107000000D03*
X134900000Y-99100000D03*
X149500000Y-112700000D03*
X155600000Y-99100000D03*
X142800000Y-121300000D03*
X157100000Y-119800000D03*
X130400000Y-113500000D03*
X141700000Y-121300000D03*
X130400000Y-114600000D03*
X141700000Y-99100000D03*
X157100000Y-99100000D03*
X148000000Y-122600000D03*
X154200000Y-121300000D03*
X158500000Y-95200000D03*
X154800000Y-93300000D03*
X155700000Y-121300000D03*
X134870000Y-94850000D03*
X157100000Y-105900000D03*
X134900000Y-100600000D03*
X132600000Y-110200000D03*
X130400000Y-112400000D03*
X130400000Y-115700000D03*
X150300000Y-121300000D03*
X140565000Y-102200000D03*
X134900000Y-118400000D03*
X154700000Y-95700000D03*
X134900000Y-121300000D03*
X138000000Y-104900000D03*
X150300000Y-99100000D03*
X137800000Y-99100000D03*
X134900000Y-105900000D03*
X150165000Y-102200000D03*
X136400000Y-121300000D03*
X157100000Y-102000000D03*
X157100000Y-121300000D03*
X134900000Y-107000000D03*
X154200000Y-99100000D03*
X157100000Y-100500000D03*
X154800000Y-94700000D03*
X130400000Y-111300000D03*
X131500000Y-110200000D03*
X149200000Y-121300000D03*
X137800000Y-121300000D03*
X132600000Y-115700000D03*
X134700000Y-93900000D03*
X134900000Y-98150000D03*
%TO.N,+BATT*%
X147687173Y-121974346D03*
%TO.N,+4V5*%
X159300000Y-97600000D03*
X150400000Y-115075000D03*
X159300000Y-98500000D03*
X138000000Y-107300000D03*
X158400000Y-98500000D03*
X147600000Y-107300000D03*
%TO.N,/PWR_EN*%
X145350000Y-123900000D03*
X155850000Y-96700000D03*
%TD*%
%TA.AperFunction,Conductor*%
%TO.N,+4V5*%
G36*
X160488227Y-87202518D02*
G01*
X160488778Y-87202645D01*
X160488779Y-87202645D01*
X160499642Y-87205143D01*
X160510515Y-87202683D01*
X160520797Y-87202701D01*
X160531781Y-87201785D01*
X160807954Y-87217295D01*
X160818976Y-87218536D01*
X161029395Y-87254288D01*
X161117572Y-87269270D01*
X161128396Y-87271740D01*
X161227938Y-87300417D01*
X161419445Y-87355590D01*
X161429918Y-87359255D01*
X161709739Y-87475160D01*
X161719736Y-87479974D01*
X161970692Y-87618673D01*
X161984821Y-87626482D01*
X161994221Y-87632388D01*
X162241236Y-87807654D01*
X162249916Y-87814576D01*
X162475753Y-88016396D01*
X162483604Y-88024247D01*
X162685424Y-88250084D01*
X162692346Y-88258764D01*
X162867612Y-88505779D01*
X162873518Y-88515179D01*
X163020023Y-88780258D01*
X163024840Y-88790261D01*
X163140745Y-89070082D01*
X163144412Y-89080560D01*
X163228260Y-89371604D01*
X163230730Y-89382428D01*
X163278750Y-89665050D01*
X163281463Y-89681019D01*
X163282706Y-89692051D01*
X163298186Y-89967701D01*
X163297341Y-89977630D01*
X163297375Y-89977630D01*
X163297355Y-89988777D01*
X163294857Y-89999642D01*
X163297317Y-90010514D01*
X163297317Y-90010516D01*
X163297559Y-90011583D01*
X163300000Y-90033432D01*
X163300000Y-128966040D01*
X163297482Y-128988227D01*
X163294857Y-128999642D01*
X163297317Y-129010515D01*
X163297299Y-129020797D01*
X163298215Y-129031784D01*
X163282706Y-129307949D01*
X163281464Y-129318976D01*
X163245712Y-129529395D01*
X163230730Y-129617572D01*
X163228260Y-129628396D01*
X163144412Y-129919440D01*
X163140745Y-129929918D01*
X163024840Y-130209739D01*
X163020026Y-130219736D01*
X162973817Y-130303344D01*
X162873518Y-130484821D01*
X162867612Y-130494221D01*
X162692346Y-130741236D01*
X162685424Y-130749916D01*
X162483604Y-130975753D01*
X162475753Y-130983604D01*
X162407260Y-131044813D01*
X162250534Y-131184872D01*
X162249916Y-131185424D01*
X162241236Y-131192346D01*
X161994221Y-131367612D01*
X161984821Y-131373518D01*
X161719736Y-131520026D01*
X161709739Y-131524840D01*
X161429918Y-131640745D01*
X161419445Y-131644410D01*
X161227938Y-131699583D01*
X161128396Y-131728260D01*
X161117572Y-131730730D01*
X161029395Y-131745712D01*
X160818976Y-131781464D01*
X160807954Y-131782705D01*
X160532297Y-131798186D01*
X160522370Y-131797341D01*
X160522370Y-131797375D01*
X160511223Y-131797355D01*
X160500358Y-131794857D01*
X160489486Y-131797317D01*
X160489484Y-131797317D01*
X160488417Y-131797559D01*
X160466568Y-131800000D01*
X131533960Y-131800000D01*
X131511773Y-131797482D01*
X131511222Y-131797355D01*
X131511221Y-131797355D01*
X131500358Y-131794857D01*
X131489485Y-131797317D01*
X131479203Y-131797299D01*
X131468219Y-131798215D01*
X131192046Y-131782705D01*
X131181024Y-131781464D01*
X130970605Y-131745712D01*
X130882428Y-131730730D01*
X130871604Y-131728260D01*
X130772062Y-131699583D01*
X130580555Y-131644410D01*
X130570082Y-131640745D01*
X130290261Y-131524840D01*
X130280264Y-131520026D01*
X130015179Y-131373518D01*
X130005779Y-131367612D01*
X129758764Y-131192346D01*
X129750084Y-131185424D01*
X129749467Y-131184872D01*
X129592740Y-131044813D01*
X129524247Y-130983604D01*
X129516396Y-130975753D01*
X129314576Y-130749916D01*
X129307654Y-130741236D01*
X129132388Y-130494221D01*
X129126482Y-130484821D01*
X129026183Y-130303344D01*
X128979974Y-130219736D01*
X128975160Y-130209739D01*
X128859255Y-129929918D01*
X128855588Y-129919440D01*
X128771740Y-129628396D01*
X128769270Y-129617572D01*
X128754288Y-129529395D01*
X128718536Y-129318976D01*
X128717294Y-129307949D01*
X128701814Y-129032299D01*
X128702659Y-129022370D01*
X128702625Y-129022370D01*
X128702645Y-129011223D01*
X128705143Y-129000358D01*
X128702683Y-128989486D01*
X128702683Y-128989484D01*
X128702441Y-128988417D01*
X128700000Y-128966568D01*
X128700000Y-127500000D01*
X132794422Y-127500000D01*
X132814722Y-127887338D01*
X132875398Y-128270433D01*
X132975786Y-128645087D01*
X133114786Y-129007194D01*
X133290875Y-129352789D01*
X133292286Y-129354961D01*
X133292289Y-129354967D01*
X133500707Y-129675903D01*
X133500713Y-129675911D01*
X133502124Y-129678084D01*
X133746219Y-129979516D01*
X134020484Y-130253781D01*
X134321916Y-130497876D01*
X134324089Y-130499287D01*
X134324097Y-130499293D01*
X134645033Y-130707711D01*
X134645039Y-130707714D01*
X134647211Y-130709125D01*
X134992806Y-130885214D01*
X135354913Y-131024214D01*
X135357416Y-131024885D01*
X135357417Y-131024885D01*
X135727058Y-131123930D01*
X135727063Y-131123931D01*
X135729567Y-131124602D01*
X135732138Y-131125009D01*
X135732137Y-131125009D01*
X136110096Y-131184872D01*
X136110104Y-131184873D01*
X136112662Y-131185278D01*
X136500000Y-131205578D01*
X136887338Y-131185278D01*
X136889896Y-131184873D01*
X136889904Y-131184872D01*
X137267863Y-131125009D01*
X137267862Y-131125009D01*
X137270433Y-131124602D01*
X137272937Y-131123931D01*
X137272942Y-131123930D01*
X137642583Y-131024885D01*
X137642584Y-131024885D01*
X137645087Y-131024214D01*
X138007194Y-130885214D01*
X138352789Y-130709125D01*
X138354961Y-130707714D01*
X138354967Y-130707711D01*
X138675903Y-130499293D01*
X138675911Y-130499287D01*
X138678084Y-130497876D01*
X138979516Y-130253781D01*
X139253781Y-129979516D01*
X139497876Y-129678084D01*
X139499287Y-129675911D01*
X139499293Y-129675903D01*
X139707711Y-129354967D01*
X139707714Y-129354961D01*
X139709125Y-129352789D01*
X139885214Y-129007194D01*
X140024214Y-128645087D01*
X140124602Y-128270433D01*
X140185278Y-127887338D01*
X140205578Y-127500000D01*
X151844422Y-127500000D01*
X151864722Y-127887338D01*
X151925398Y-128270433D01*
X152025786Y-128645087D01*
X152164786Y-129007194D01*
X152340875Y-129352789D01*
X152342286Y-129354961D01*
X152342289Y-129354967D01*
X152550707Y-129675903D01*
X152550713Y-129675911D01*
X152552124Y-129678084D01*
X152796219Y-129979516D01*
X153070484Y-130253781D01*
X153371916Y-130497876D01*
X153374089Y-130499287D01*
X153374097Y-130499293D01*
X153695033Y-130707711D01*
X153695039Y-130707714D01*
X153697211Y-130709125D01*
X154042806Y-130885214D01*
X154404913Y-131024214D01*
X154407416Y-131024885D01*
X154407417Y-131024885D01*
X154777058Y-131123930D01*
X154777063Y-131123931D01*
X154779567Y-131124602D01*
X154782138Y-131125009D01*
X154782137Y-131125009D01*
X155160096Y-131184872D01*
X155160104Y-131184873D01*
X155162662Y-131185278D01*
X155550000Y-131205578D01*
X155937338Y-131185278D01*
X155939896Y-131184873D01*
X155939904Y-131184872D01*
X156317863Y-131125009D01*
X156317862Y-131125009D01*
X156320433Y-131124602D01*
X156322937Y-131123931D01*
X156322942Y-131123930D01*
X156692583Y-131024885D01*
X156692584Y-131024885D01*
X156695087Y-131024214D01*
X157057194Y-130885214D01*
X157402789Y-130709125D01*
X157404961Y-130707714D01*
X157404967Y-130707711D01*
X157725903Y-130499293D01*
X157725911Y-130499287D01*
X157728084Y-130497876D01*
X158029516Y-130253781D01*
X158303781Y-129979516D01*
X158547876Y-129678084D01*
X158549287Y-129675911D01*
X158549293Y-129675903D01*
X158757711Y-129354967D01*
X158757714Y-129354961D01*
X158759125Y-129352789D01*
X158935214Y-129007194D01*
X159074214Y-128645087D01*
X159174602Y-128270433D01*
X159235278Y-127887338D01*
X159255578Y-127500000D01*
X159235278Y-127112662D01*
X159174602Y-126729567D01*
X159074214Y-126354913D01*
X158935214Y-125992806D01*
X158759125Y-125647211D01*
X158757711Y-125645033D01*
X158549293Y-125324097D01*
X158549287Y-125324089D01*
X158547876Y-125321916D01*
X158303781Y-125020484D01*
X158029516Y-124746219D01*
X157728084Y-124502124D01*
X157725911Y-124500713D01*
X157725903Y-124500707D01*
X157404967Y-124292289D01*
X157404961Y-124292286D01*
X157402789Y-124290875D01*
X157057194Y-124114786D01*
X156695087Y-123975786D01*
X156692583Y-123975115D01*
X156322942Y-123876070D01*
X156322937Y-123876069D01*
X156320433Y-123875398D01*
X156279884Y-123868976D01*
X155939904Y-123815128D01*
X155939896Y-123815127D01*
X155937338Y-123814722D01*
X155550000Y-123794422D01*
X155162662Y-123814722D01*
X155160104Y-123815127D01*
X155160096Y-123815128D01*
X154820116Y-123868976D01*
X154779567Y-123875398D01*
X154777063Y-123876069D01*
X154777058Y-123876070D01*
X154407417Y-123975115D01*
X154404913Y-123975786D01*
X154042806Y-124114786D01*
X153697211Y-124290875D01*
X153695039Y-124292286D01*
X153695033Y-124292289D01*
X153374097Y-124500707D01*
X153374089Y-124500713D01*
X153371916Y-124502124D01*
X153070484Y-124746219D01*
X152796219Y-125020484D01*
X152552124Y-125321916D01*
X152550713Y-125324089D01*
X152550707Y-125324097D01*
X152342289Y-125645033D01*
X152340875Y-125647211D01*
X152164786Y-125992806D01*
X152025786Y-126354913D01*
X151925398Y-126729567D01*
X151864722Y-127112662D01*
X151844422Y-127500000D01*
X140205578Y-127500000D01*
X140185278Y-127112662D01*
X140124602Y-126729567D01*
X140024214Y-126354913D01*
X139885214Y-125992806D01*
X139709125Y-125647211D01*
X139707711Y-125645033D01*
X139499293Y-125324097D01*
X139499287Y-125324089D01*
X139497876Y-125321916D01*
X139253781Y-125020484D01*
X138979516Y-124746219D01*
X138678084Y-124502124D01*
X138675911Y-124500713D01*
X138675903Y-124500707D01*
X138354967Y-124292289D01*
X138354961Y-124292286D01*
X138352789Y-124290875D01*
X138007194Y-124114786D01*
X137645087Y-123975786D01*
X137642583Y-123975115D01*
X137341500Y-123894440D01*
X144894901Y-123894440D01*
X144895816Y-123901437D01*
X144895816Y-123901438D01*
X144897082Y-123911120D01*
X144911633Y-124022394D01*
X144914471Y-124028845D01*
X144914472Y-124028847D01*
X144921458Y-124044724D01*
X144963605Y-124140510D01*
X145005122Y-124189901D01*
X145042100Y-124233892D01*
X145042103Y-124233894D01*
X145046639Y-124239291D01*
X145154060Y-124310796D01*
X145160788Y-124312898D01*
X145160790Y-124312899D01*
X145215646Y-124330037D01*
X145277233Y-124349278D01*
X145341744Y-124350461D01*
X145399202Y-124351514D01*
X145399204Y-124351514D01*
X145406255Y-124351643D01*
X145413058Y-124349788D01*
X145413060Y-124349788D01*
X145454828Y-124338400D01*
X145530755Y-124317700D01*
X145640724Y-124250179D01*
X145727322Y-124154507D01*
X145783588Y-124038375D01*
X145804997Y-123911120D01*
X145805133Y-123900000D01*
X145786839Y-123772259D01*
X145733428Y-123654788D01*
X145649193Y-123557028D01*
X145643276Y-123553193D01*
X145643274Y-123553191D01*
X145546824Y-123490677D01*
X145540906Y-123486841D01*
X145534150Y-123484821D01*
X145534149Y-123484820D01*
X145491335Y-123472016D01*
X145417273Y-123449866D01*
X145340644Y-123449398D01*
X145295282Y-123449121D01*
X145288231Y-123449078D01*
X145281454Y-123451015D01*
X145281453Y-123451015D01*
X145170935Y-123482601D01*
X145170933Y-123482602D01*
X145164155Y-123484539D01*
X145055019Y-123553399D01*
X144969596Y-123650122D01*
X144914754Y-123766932D01*
X144894901Y-123894440D01*
X137341500Y-123894440D01*
X137272942Y-123876070D01*
X137272937Y-123876069D01*
X137270433Y-123875398D01*
X137229884Y-123868976D01*
X136889904Y-123815128D01*
X136889896Y-123815127D01*
X136887338Y-123814722D01*
X136500000Y-123794422D01*
X136112662Y-123814722D01*
X136110104Y-123815127D01*
X136110096Y-123815128D01*
X135770116Y-123868976D01*
X135729567Y-123875398D01*
X135727063Y-123876069D01*
X135727058Y-123876070D01*
X135357417Y-123975115D01*
X135354913Y-123975786D01*
X134992806Y-124114786D01*
X134647211Y-124290875D01*
X134645039Y-124292286D01*
X134645033Y-124292289D01*
X134324097Y-124500707D01*
X134324089Y-124500713D01*
X134321916Y-124502124D01*
X134020484Y-124746219D01*
X133746219Y-125020484D01*
X133502124Y-125321916D01*
X133500713Y-125324089D01*
X133500707Y-125324097D01*
X133292289Y-125645033D01*
X133290875Y-125647211D01*
X133114786Y-125992806D01*
X132975786Y-126354913D01*
X132875398Y-126729567D01*
X132814722Y-127112662D01*
X132794422Y-127500000D01*
X128700000Y-127500000D01*
X128700000Y-122994440D01*
X143744901Y-122994440D01*
X143745816Y-123001437D01*
X143745816Y-123001438D01*
X143747040Y-123010796D01*
X143761633Y-123122394D01*
X143764471Y-123128845D01*
X143764472Y-123128847D01*
X143771458Y-123144724D01*
X143813605Y-123240510D01*
X143855122Y-123289901D01*
X143892100Y-123333892D01*
X143892103Y-123333894D01*
X143896639Y-123339291D01*
X144004060Y-123410796D01*
X144010788Y-123412898D01*
X144010790Y-123412899D01*
X144065646Y-123430037D01*
X144127233Y-123449278D01*
X144191744Y-123450461D01*
X144249202Y-123451514D01*
X144249204Y-123451514D01*
X144256255Y-123451643D01*
X144263058Y-123449788D01*
X144263060Y-123449788D01*
X144304828Y-123438400D01*
X144380755Y-123417700D01*
X144490724Y-123350179D01*
X144577322Y-123254507D01*
X144633588Y-123138375D01*
X144648556Y-123049407D01*
X144654363Y-123014891D01*
X144654363Y-123014886D01*
X144654997Y-123011120D01*
X144655133Y-123000000D01*
X144636839Y-122872259D01*
X144583428Y-122754788D01*
X144499193Y-122657028D01*
X144449145Y-122624589D01*
X144410600Y-122577073D01*
X144407344Y-122515975D01*
X144440623Y-122464631D01*
X144476953Y-122446000D01*
X144580755Y-122417700D01*
X144672755Y-122361212D01*
X144684711Y-122353871D01*
X144690724Y-122350179D01*
X144777322Y-122254507D01*
X144833588Y-122138375D01*
X144854997Y-122011120D01*
X144855133Y-122000000D01*
X144850663Y-121968786D01*
X147232074Y-121968786D01*
X147232989Y-121975783D01*
X147232989Y-121975784D01*
X147234255Y-121985466D01*
X147248806Y-122096740D01*
X147251644Y-122103191D01*
X147251645Y-122103193D01*
X147269919Y-122144724D01*
X147300778Y-122214856D01*
X147326881Y-122245909D01*
X147379273Y-122308238D01*
X147379276Y-122308240D01*
X147383812Y-122313637D01*
X147491233Y-122385142D01*
X147497964Y-122387245D01*
X147504331Y-122390282D01*
X147502967Y-122393141D01*
X147541954Y-122420781D01*
X147561536Y-122478748D01*
X147560364Y-122495126D01*
X147544901Y-122594440D01*
X147545816Y-122601437D01*
X147545816Y-122601438D01*
X147547082Y-122611120D01*
X147561633Y-122722394D01*
X147564471Y-122728845D01*
X147564472Y-122728847D01*
X147578713Y-122761212D01*
X147613605Y-122840510D01*
X147655122Y-122889901D01*
X147692100Y-122933892D01*
X147692103Y-122933894D01*
X147696639Y-122939291D01*
X147804060Y-123010796D01*
X147810788Y-123012898D01*
X147810790Y-123012899D01*
X147865646Y-123030037D01*
X147927233Y-123049278D01*
X147991744Y-123050460D01*
X148049202Y-123051514D01*
X148049204Y-123051514D01*
X148056255Y-123051643D01*
X148063058Y-123049788D01*
X148063060Y-123049788D01*
X148104828Y-123038400D01*
X148180755Y-123017700D01*
X148290724Y-122950179D01*
X148361254Y-122872259D01*
X148372590Y-122859735D01*
X148372590Y-122859734D01*
X148377322Y-122854507D01*
X148411718Y-122783515D01*
X148430512Y-122744724D01*
X148430512Y-122744723D01*
X148433588Y-122738375D01*
X148454997Y-122611120D01*
X148455133Y-122600000D01*
X148436839Y-122472259D01*
X148383428Y-122354788D01*
X148299193Y-122257028D01*
X148293276Y-122253193D01*
X148293274Y-122253191D01*
X148196824Y-122190677D01*
X148190906Y-122186841D01*
X148184150Y-122184820D01*
X148182727Y-122184163D01*
X148137833Y-122142591D01*
X148126625Y-122077869D01*
X148141535Y-121989240D01*
X148142170Y-121985466D01*
X148142306Y-121974346D01*
X148124012Y-121846605D01*
X148085186Y-121761212D01*
X148073522Y-121735558D01*
X148073521Y-121735557D01*
X148070601Y-121729134D01*
X148017568Y-121667586D01*
X147990971Y-121636718D01*
X147990970Y-121636717D01*
X147986366Y-121631374D01*
X147980449Y-121627539D01*
X147980447Y-121627537D01*
X147883997Y-121565023D01*
X147878079Y-121561187D01*
X147871323Y-121559167D01*
X147871322Y-121559166D01*
X147808941Y-121540510D01*
X147754446Y-121524212D01*
X147677817Y-121523744D01*
X147632455Y-121523467D01*
X147625404Y-121523424D01*
X147618627Y-121525361D01*
X147618626Y-121525361D01*
X147508108Y-121556947D01*
X147508106Y-121556948D01*
X147501328Y-121558885D01*
X147392192Y-121627745D01*
X147306769Y-121724468D01*
X147251927Y-121841278D01*
X147232074Y-121968786D01*
X144850663Y-121968786D01*
X144836839Y-121872259D01*
X144783428Y-121754788D01*
X144699193Y-121657028D01*
X144693276Y-121653193D01*
X144693274Y-121653191D01*
X144596824Y-121590677D01*
X144590906Y-121586841D01*
X144584150Y-121584821D01*
X144584149Y-121584820D01*
X144510012Y-121562648D01*
X144467273Y-121549866D01*
X144390644Y-121549398D01*
X144345282Y-121549121D01*
X144338231Y-121549078D01*
X144331454Y-121551015D01*
X144331453Y-121551015D01*
X144220935Y-121582601D01*
X144220933Y-121582602D01*
X144214155Y-121584539D01*
X144105019Y-121653399D01*
X144019596Y-121750122D01*
X143964754Y-121866932D01*
X143944901Y-121994440D01*
X143945816Y-122001437D01*
X143945816Y-122001438D01*
X143947082Y-122011120D01*
X143961633Y-122122394D01*
X143964471Y-122128845D01*
X143964472Y-122128847D01*
X144010764Y-122234054D01*
X144013605Y-122240510D01*
X144031982Y-122262372D01*
X144092100Y-122333892D01*
X144092103Y-122333894D01*
X144096639Y-122339291D01*
X144105138Y-122344948D01*
X144151267Y-122375654D01*
X144189231Y-122423638D01*
X144191740Y-122484772D01*
X144157836Y-122535705D01*
X144123615Y-122553255D01*
X144020935Y-122582601D01*
X144020933Y-122582602D01*
X144014155Y-122584539D01*
X143905019Y-122653399D01*
X143819596Y-122750122D01*
X143764754Y-122866932D01*
X143744901Y-122994440D01*
X128700000Y-122994440D01*
X128700000Y-121294440D01*
X134444901Y-121294440D01*
X134445816Y-121301437D01*
X134445816Y-121301438D01*
X134447082Y-121311120D01*
X134461633Y-121422394D01*
X134464471Y-121428845D01*
X134464472Y-121428847D01*
X134506939Y-121525361D01*
X134513605Y-121540510D01*
X134548986Y-121582601D01*
X134592100Y-121633892D01*
X134592103Y-121633894D01*
X134596639Y-121639291D01*
X134704060Y-121710796D01*
X134710788Y-121712898D01*
X134710790Y-121712899D01*
X134747821Y-121724468D01*
X134827233Y-121749278D01*
X134891744Y-121750460D01*
X134949202Y-121751514D01*
X134949204Y-121751514D01*
X134956255Y-121751643D01*
X134963058Y-121749788D01*
X134963060Y-121749788D01*
X135015253Y-121735558D01*
X135080755Y-121717700D01*
X135190724Y-121650179D01*
X135206247Y-121633030D01*
X135272590Y-121559735D01*
X135272590Y-121559734D01*
X135277322Y-121554507D01*
X135333588Y-121438375D01*
X135352572Y-121325536D01*
X135354363Y-121314891D01*
X135354363Y-121314886D01*
X135354997Y-121311120D01*
X135355133Y-121300000D01*
X135354337Y-121294440D01*
X135944901Y-121294440D01*
X135945816Y-121301437D01*
X135945816Y-121301438D01*
X135947082Y-121311120D01*
X135961633Y-121422394D01*
X135964471Y-121428845D01*
X135964472Y-121428847D01*
X136006939Y-121525361D01*
X136013605Y-121540510D01*
X136048986Y-121582601D01*
X136092100Y-121633892D01*
X136092103Y-121633894D01*
X136096639Y-121639291D01*
X136204060Y-121710796D01*
X136210788Y-121712898D01*
X136210790Y-121712899D01*
X136247821Y-121724468D01*
X136327233Y-121749278D01*
X136391744Y-121750460D01*
X136449202Y-121751514D01*
X136449204Y-121751514D01*
X136456255Y-121751643D01*
X136463058Y-121749788D01*
X136463060Y-121749788D01*
X136515253Y-121735558D01*
X136580755Y-121717700D01*
X136690724Y-121650179D01*
X136706247Y-121633030D01*
X136772590Y-121559735D01*
X136772590Y-121559734D01*
X136777322Y-121554507D01*
X136833588Y-121438375D01*
X136852572Y-121325536D01*
X136854363Y-121314891D01*
X136854363Y-121314886D01*
X136854997Y-121311120D01*
X136855133Y-121300000D01*
X136854337Y-121294440D01*
X137344901Y-121294440D01*
X137345816Y-121301437D01*
X137345816Y-121301438D01*
X137347082Y-121311120D01*
X137361633Y-121422394D01*
X137364471Y-121428845D01*
X137364472Y-121428847D01*
X137406939Y-121525361D01*
X137413605Y-121540510D01*
X137448986Y-121582601D01*
X137492100Y-121633892D01*
X137492103Y-121633894D01*
X137496639Y-121639291D01*
X137604060Y-121710796D01*
X137610788Y-121712898D01*
X137610790Y-121712899D01*
X137647821Y-121724468D01*
X137727233Y-121749278D01*
X137791744Y-121750460D01*
X137849202Y-121751514D01*
X137849204Y-121751514D01*
X137856255Y-121751643D01*
X137863058Y-121749788D01*
X137863060Y-121749788D01*
X137915253Y-121735558D01*
X137980755Y-121717700D01*
X138090724Y-121650179D01*
X138106247Y-121633030D01*
X138172590Y-121559735D01*
X138172590Y-121559734D01*
X138177322Y-121554507D01*
X138233588Y-121438375D01*
X138252572Y-121325536D01*
X138254363Y-121314891D01*
X138254363Y-121314886D01*
X138254997Y-121311120D01*
X138255133Y-121300000D01*
X138254337Y-121294440D01*
X141244901Y-121294440D01*
X141245816Y-121301437D01*
X141245816Y-121301438D01*
X141247082Y-121311120D01*
X141261633Y-121422394D01*
X141264471Y-121428845D01*
X141264472Y-121428847D01*
X141306939Y-121525361D01*
X141313605Y-121540510D01*
X141348986Y-121582601D01*
X141392100Y-121633892D01*
X141392103Y-121633894D01*
X141396639Y-121639291D01*
X141504060Y-121710796D01*
X141510788Y-121712898D01*
X141510790Y-121712899D01*
X141547821Y-121724468D01*
X141627233Y-121749278D01*
X141691744Y-121750460D01*
X141749202Y-121751514D01*
X141749204Y-121751514D01*
X141756255Y-121751643D01*
X141763058Y-121749788D01*
X141763060Y-121749788D01*
X141815253Y-121735558D01*
X141880755Y-121717700D01*
X141990724Y-121650179D01*
X142006247Y-121633030D01*
X142072590Y-121559735D01*
X142072590Y-121559734D01*
X142077322Y-121554507D01*
X142133588Y-121438375D01*
X142134758Y-121431420D01*
X142134759Y-121431417D01*
X142153175Y-121321949D01*
X142161312Y-121306351D01*
X142157380Y-121293994D01*
X142339163Y-121293994D01*
X142339440Y-121294276D01*
X142348967Y-121325536D01*
X142361633Y-121422394D01*
X142364471Y-121428845D01*
X142364472Y-121428847D01*
X142406939Y-121525361D01*
X142413605Y-121540510D01*
X142448986Y-121582601D01*
X142492100Y-121633892D01*
X142492103Y-121633894D01*
X142496639Y-121639291D01*
X142604060Y-121710796D01*
X142610788Y-121712898D01*
X142610790Y-121712899D01*
X142647821Y-121724468D01*
X142727233Y-121749278D01*
X142791744Y-121750460D01*
X142849202Y-121751514D01*
X142849204Y-121751514D01*
X142856255Y-121751643D01*
X142863058Y-121749788D01*
X142863060Y-121749788D01*
X142915253Y-121735558D01*
X142980755Y-121717700D01*
X143090724Y-121650179D01*
X143106247Y-121633030D01*
X143172590Y-121559735D01*
X143172590Y-121559734D01*
X143177322Y-121554507D01*
X143233588Y-121438375D01*
X143252572Y-121325536D01*
X143254363Y-121314891D01*
X143254363Y-121314886D01*
X143254997Y-121311120D01*
X143255133Y-121300000D01*
X143254337Y-121294440D01*
X148744901Y-121294440D01*
X148745816Y-121301437D01*
X148745816Y-121301438D01*
X148747082Y-121311120D01*
X148761633Y-121422394D01*
X148764471Y-121428845D01*
X148764472Y-121428847D01*
X148806939Y-121525361D01*
X148813605Y-121540510D01*
X148848986Y-121582601D01*
X148892100Y-121633892D01*
X148892103Y-121633894D01*
X148896639Y-121639291D01*
X149004060Y-121710796D01*
X149010788Y-121712898D01*
X149010790Y-121712899D01*
X149047821Y-121724468D01*
X149127233Y-121749278D01*
X149191744Y-121750460D01*
X149249202Y-121751514D01*
X149249204Y-121751514D01*
X149256255Y-121751643D01*
X149263058Y-121749788D01*
X149263060Y-121749788D01*
X149315253Y-121735558D01*
X149380755Y-121717700D01*
X149490724Y-121650179D01*
X149506247Y-121633030D01*
X149572590Y-121559735D01*
X149572590Y-121559734D01*
X149577322Y-121554507D01*
X149633588Y-121438375D01*
X149634758Y-121431420D01*
X149634759Y-121431417D01*
X149653175Y-121321949D01*
X149661312Y-121306351D01*
X149657380Y-121293994D01*
X149839163Y-121293994D01*
X149839440Y-121294276D01*
X149848967Y-121325536D01*
X149861633Y-121422394D01*
X149864471Y-121428845D01*
X149864472Y-121428847D01*
X149906939Y-121525361D01*
X149913605Y-121540510D01*
X149948986Y-121582601D01*
X149992100Y-121633892D01*
X149992103Y-121633894D01*
X149996639Y-121639291D01*
X150104060Y-121710796D01*
X150110788Y-121712898D01*
X150110790Y-121712899D01*
X150147821Y-121724468D01*
X150227233Y-121749278D01*
X150291744Y-121750460D01*
X150349202Y-121751514D01*
X150349204Y-121751514D01*
X150356255Y-121751643D01*
X150363058Y-121749788D01*
X150363060Y-121749788D01*
X150415253Y-121735558D01*
X150480755Y-121717700D01*
X150590724Y-121650179D01*
X150606247Y-121633030D01*
X150672590Y-121559735D01*
X150672590Y-121559734D01*
X150677322Y-121554507D01*
X150733588Y-121438375D01*
X150752572Y-121325536D01*
X150754363Y-121314891D01*
X150754363Y-121314886D01*
X150754997Y-121311120D01*
X150755133Y-121300000D01*
X150754337Y-121294440D01*
X153744901Y-121294440D01*
X153745816Y-121301437D01*
X153745816Y-121301438D01*
X153747082Y-121311120D01*
X153761633Y-121422394D01*
X153764471Y-121428845D01*
X153764472Y-121428847D01*
X153806939Y-121525361D01*
X153813605Y-121540510D01*
X153848986Y-121582601D01*
X153892100Y-121633892D01*
X153892103Y-121633894D01*
X153896639Y-121639291D01*
X154004060Y-121710796D01*
X154010788Y-121712898D01*
X154010790Y-121712899D01*
X154047821Y-121724468D01*
X154127233Y-121749278D01*
X154191744Y-121750460D01*
X154249202Y-121751514D01*
X154249204Y-121751514D01*
X154256255Y-121751643D01*
X154263058Y-121749788D01*
X154263060Y-121749788D01*
X154315253Y-121735558D01*
X154380755Y-121717700D01*
X154490724Y-121650179D01*
X154506247Y-121633030D01*
X154572590Y-121559735D01*
X154572590Y-121559734D01*
X154577322Y-121554507D01*
X154633588Y-121438375D01*
X154652572Y-121325536D01*
X154654363Y-121314891D01*
X154654363Y-121314886D01*
X154654997Y-121311120D01*
X154655133Y-121300000D01*
X154654337Y-121294440D01*
X155244901Y-121294440D01*
X155245816Y-121301437D01*
X155245816Y-121301438D01*
X155247082Y-121311120D01*
X155261633Y-121422394D01*
X155264471Y-121428845D01*
X155264472Y-121428847D01*
X155306939Y-121525361D01*
X155313605Y-121540510D01*
X155348986Y-121582601D01*
X155392100Y-121633892D01*
X155392103Y-121633894D01*
X155396639Y-121639291D01*
X155504060Y-121710796D01*
X155510788Y-121712898D01*
X155510790Y-121712899D01*
X155547821Y-121724468D01*
X155627233Y-121749278D01*
X155691744Y-121750460D01*
X155749202Y-121751514D01*
X155749204Y-121751514D01*
X155756255Y-121751643D01*
X155763058Y-121749788D01*
X155763060Y-121749788D01*
X155815253Y-121735558D01*
X155880755Y-121717700D01*
X155990724Y-121650179D01*
X156006247Y-121633030D01*
X156072590Y-121559735D01*
X156072590Y-121559734D01*
X156077322Y-121554507D01*
X156133588Y-121438375D01*
X156152572Y-121325536D01*
X156154363Y-121314891D01*
X156154363Y-121314886D01*
X156154997Y-121311120D01*
X156155133Y-121300000D01*
X156154337Y-121294440D01*
X156644901Y-121294440D01*
X156645816Y-121301437D01*
X156645816Y-121301438D01*
X156647082Y-121311120D01*
X156661633Y-121422394D01*
X156664471Y-121428845D01*
X156664472Y-121428847D01*
X156706939Y-121525361D01*
X156713605Y-121540510D01*
X156748986Y-121582601D01*
X156792100Y-121633892D01*
X156792103Y-121633894D01*
X156796639Y-121639291D01*
X156904060Y-121710796D01*
X156910788Y-121712898D01*
X156910790Y-121712899D01*
X156947821Y-121724468D01*
X157027233Y-121749278D01*
X157091744Y-121750460D01*
X157149202Y-121751514D01*
X157149204Y-121751514D01*
X157156255Y-121751643D01*
X157163058Y-121749788D01*
X157163060Y-121749788D01*
X157215253Y-121735558D01*
X157280755Y-121717700D01*
X157390724Y-121650179D01*
X157406247Y-121633030D01*
X157472590Y-121559735D01*
X157472590Y-121559734D01*
X157477322Y-121554507D01*
X157533588Y-121438375D01*
X157552572Y-121325536D01*
X157554363Y-121314891D01*
X157554363Y-121314886D01*
X157554997Y-121311120D01*
X157555133Y-121300000D01*
X157536839Y-121172259D01*
X157483428Y-121054788D01*
X157399193Y-120957028D01*
X157393276Y-120953193D01*
X157393274Y-120953191D01*
X157296824Y-120890677D01*
X157290906Y-120886841D01*
X157284150Y-120884821D01*
X157284149Y-120884820D01*
X157241335Y-120872016D01*
X157167273Y-120849866D01*
X157090644Y-120849398D01*
X157045282Y-120849121D01*
X157038231Y-120849078D01*
X157031454Y-120851015D01*
X157031453Y-120851015D01*
X156920935Y-120882601D01*
X156920933Y-120882602D01*
X156914155Y-120884539D01*
X156805019Y-120953399D01*
X156719596Y-121050122D01*
X156664754Y-121166932D01*
X156644901Y-121294440D01*
X156154337Y-121294440D01*
X156136839Y-121172259D01*
X156083428Y-121054788D01*
X155999193Y-120957028D01*
X155993276Y-120953193D01*
X155993274Y-120953191D01*
X155896824Y-120890677D01*
X155890906Y-120886841D01*
X155884150Y-120884821D01*
X155884149Y-120884820D01*
X155841335Y-120872016D01*
X155767273Y-120849866D01*
X155690644Y-120849398D01*
X155645282Y-120849121D01*
X155638231Y-120849078D01*
X155631454Y-120851015D01*
X155631453Y-120851015D01*
X155520935Y-120882601D01*
X155520933Y-120882602D01*
X155514155Y-120884539D01*
X155405019Y-120953399D01*
X155319596Y-121050122D01*
X155264754Y-121166932D01*
X155244901Y-121294440D01*
X154654337Y-121294440D01*
X154636839Y-121172259D01*
X154583428Y-121054788D01*
X154499193Y-120957028D01*
X154493276Y-120953193D01*
X154493274Y-120953191D01*
X154396824Y-120890677D01*
X154390906Y-120886841D01*
X154384150Y-120884821D01*
X154384149Y-120884820D01*
X154341335Y-120872016D01*
X154267273Y-120849866D01*
X154190644Y-120849398D01*
X154145282Y-120849121D01*
X154138231Y-120849078D01*
X154131454Y-120851015D01*
X154131453Y-120851015D01*
X154020935Y-120882601D01*
X154020933Y-120882602D01*
X154014155Y-120884539D01*
X153905019Y-120953399D01*
X153819596Y-121050122D01*
X153764754Y-121166932D01*
X153744901Y-121294440D01*
X150754337Y-121294440D01*
X150736839Y-121172259D01*
X150683428Y-121054788D01*
X150599193Y-120957028D01*
X150593276Y-120953193D01*
X150593274Y-120953191D01*
X150496824Y-120890677D01*
X150490906Y-120886841D01*
X150484150Y-120884821D01*
X150484149Y-120884820D01*
X150441335Y-120872016D01*
X150367273Y-120849866D01*
X150290644Y-120849398D01*
X150245282Y-120849121D01*
X150238231Y-120849078D01*
X150231454Y-120851015D01*
X150231453Y-120851015D01*
X150120935Y-120882601D01*
X150120933Y-120882602D01*
X150114155Y-120884539D01*
X150005019Y-120953399D01*
X149919596Y-121050122D01*
X149864754Y-121166932D01*
X149863669Y-121173902D01*
X149847550Y-121277427D01*
X149839163Y-121293994D01*
X149657380Y-121293994D01*
X149651729Y-121276231D01*
X149637839Y-121179243D01*
X149636839Y-121172259D01*
X149583428Y-121054788D01*
X149499193Y-120957028D01*
X149493276Y-120953193D01*
X149493274Y-120953191D01*
X149396824Y-120890677D01*
X149390906Y-120886841D01*
X149384150Y-120884821D01*
X149384149Y-120884820D01*
X149341335Y-120872016D01*
X149267273Y-120849866D01*
X149190644Y-120849398D01*
X149145282Y-120849121D01*
X149138231Y-120849078D01*
X149131454Y-120851015D01*
X149131453Y-120851015D01*
X149020935Y-120882601D01*
X149020933Y-120882602D01*
X149014155Y-120884539D01*
X148905019Y-120953399D01*
X148819596Y-121050122D01*
X148764754Y-121166932D01*
X148744901Y-121294440D01*
X143254337Y-121294440D01*
X143236839Y-121172259D01*
X143183428Y-121054788D01*
X143099193Y-120957028D01*
X143093276Y-120953193D01*
X143093274Y-120953191D01*
X142996824Y-120890677D01*
X142990906Y-120886841D01*
X142984150Y-120884821D01*
X142984149Y-120884820D01*
X142941335Y-120872016D01*
X142867273Y-120849866D01*
X142790644Y-120849398D01*
X142745282Y-120849121D01*
X142738231Y-120849078D01*
X142731454Y-120851015D01*
X142731453Y-120851015D01*
X142620935Y-120882601D01*
X142620933Y-120882602D01*
X142614155Y-120884539D01*
X142505019Y-120953399D01*
X142419596Y-121050122D01*
X142364754Y-121166932D01*
X142363669Y-121173902D01*
X142347550Y-121277427D01*
X142339163Y-121293994D01*
X142157380Y-121293994D01*
X142151729Y-121276231D01*
X142137839Y-121179243D01*
X142136839Y-121172259D01*
X142083428Y-121054788D01*
X141999193Y-120957028D01*
X141993276Y-120953193D01*
X141993274Y-120953191D01*
X141896824Y-120890677D01*
X141890906Y-120886841D01*
X141884150Y-120884821D01*
X141884149Y-120884820D01*
X141841335Y-120872016D01*
X141767273Y-120849866D01*
X141690644Y-120849398D01*
X141645282Y-120849121D01*
X141638231Y-120849078D01*
X141631454Y-120851015D01*
X141631453Y-120851015D01*
X141520935Y-120882601D01*
X141520933Y-120882602D01*
X141514155Y-120884539D01*
X141405019Y-120953399D01*
X141319596Y-121050122D01*
X141264754Y-121166932D01*
X141244901Y-121294440D01*
X138254337Y-121294440D01*
X138236839Y-121172259D01*
X138183428Y-121054788D01*
X138099193Y-120957028D01*
X138093276Y-120953193D01*
X138093274Y-120953191D01*
X137996824Y-120890677D01*
X137990906Y-120886841D01*
X137984150Y-120884821D01*
X137984149Y-120884820D01*
X137941335Y-120872016D01*
X137867273Y-120849866D01*
X137790644Y-120849398D01*
X137745282Y-120849121D01*
X137738231Y-120849078D01*
X137731454Y-120851015D01*
X137731453Y-120851015D01*
X137620935Y-120882601D01*
X137620933Y-120882602D01*
X137614155Y-120884539D01*
X137505019Y-120953399D01*
X137419596Y-121050122D01*
X137364754Y-121166932D01*
X137344901Y-121294440D01*
X136854337Y-121294440D01*
X136836839Y-121172259D01*
X136783428Y-121054788D01*
X136699193Y-120957028D01*
X136693276Y-120953193D01*
X136693274Y-120953191D01*
X136596824Y-120890677D01*
X136590906Y-120886841D01*
X136584150Y-120884821D01*
X136584149Y-120884820D01*
X136541335Y-120872016D01*
X136467273Y-120849866D01*
X136390644Y-120849398D01*
X136345282Y-120849121D01*
X136338231Y-120849078D01*
X136331454Y-120851015D01*
X136331453Y-120851015D01*
X136220935Y-120882601D01*
X136220933Y-120882602D01*
X136214155Y-120884539D01*
X136105019Y-120953399D01*
X136019596Y-121050122D01*
X135964754Y-121166932D01*
X135944901Y-121294440D01*
X135354337Y-121294440D01*
X135336839Y-121172259D01*
X135283428Y-121054788D01*
X135199193Y-120957028D01*
X135193276Y-120953193D01*
X135193274Y-120953191D01*
X135096824Y-120890677D01*
X135090906Y-120886841D01*
X135084150Y-120884821D01*
X135084149Y-120884820D01*
X135041335Y-120872016D01*
X134967273Y-120849866D01*
X134890644Y-120849398D01*
X134845282Y-120849121D01*
X134838231Y-120849078D01*
X134831454Y-120851015D01*
X134831453Y-120851015D01*
X134720935Y-120882601D01*
X134720933Y-120882602D01*
X134714155Y-120884539D01*
X134605019Y-120953399D01*
X134519596Y-121050122D01*
X134464754Y-121166932D01*
X134444901Y-121294440D01*
X128700000Y-121294440D01*
X128700000Y-119894440D01*
X134444901Y-119894440D01*
X134445816Y-119901437D01*
X134445816Y-119901438D01*
X134447082Y-119911120D01*
X134461633Y-120022394D01*
X134464471Y-120028845D01*
X134464472Y-120028847D01*
X134472971Y-120048162D01*
X134513605Y-120140510D01*
X134555122Y-120189900D01*
X134592100Y-120233892D01*
X134592103Y-120233894D01*
X134596639Y-120239291D01*
X134704060Y-120310796D01*
X134710788Y-120312898D01*
X134710790Y-120312899D01*
X134765647Y-120330037D01*
X134827233Y-120349278D01*
X134891744Y-120350460D01*
X134949202Y-120351514D01*
X134949204Y-120351514D01*
X134956255Y-120351643D01*
X134963058Y-120349788D01*
X134963060Y-120349788D01*
X135004828Y-120338400D01*
X135080755Y-120317700D01*
X135190724Y-120250179D01*
X135205466Y-120233892D01*
X135272590Y-120159735D01*
X135272590Y-120159734D01*
X135277322Y-120154507D01*
X135333588Y-120038375D01*
X135352015Y-119928847D01*
X135354363Y-119914891D01*
X135354363Y-119914886D01*
X135354997Y-119911120D01*
X135355133Y-119900000D01*
X135340016Y-119794440D01*
X156644901Y-119794440D01*
X156645816Y-119801437D01*
X156645816Y-119801438D01*
X156647082Y-119811120D01*
X156661633Y-119922394D01*
X156664471Y-119928845D01*
X156664472Y-119928847D01*
X156708473Y-120028847D01*
X156713605Y-120040510D01*
X156755122Y-120089900D01*
X156792100Y-120133892D01*
X156792103Y-120133894D01*
X156796639Y-120139291D01*
X156904060Y-120210796D01*
X156910788Y-120212898D01*
X156910790Y-120212899D01*
X156965646Y-120230037D01*
X157027233Y-120249278D01*
X157091744Y-120250460D01*
X157149202Y-120251514D01*
X157149204Y-120251514D01*
X157156255Y-120251643D01*
X157163058Y-120249788D01*
X157163060Y-120249788D01*
X157221364Y-120233892D01*
X157280755Y-120217700D01*
X157390724Y-120150179D01*
X157477322Y-120054507D01*
X157533588Y-119938375D01*
X157554997Y-119811120D01*
X157555133Y-119800000D01*
X157536839Y-119672259D01*
X157483428Y-119554788D01*
X157399193Y-119457028D01*
X157393276Y-119453193D01*
X157393274Y-119453191D01*
X157296824Y-119390677D01*
X157290906Y-119386841D01*
X157284150Y-119384821D01*
X157284149Y-119384820D01*
X157241335Y-119372016D01*
X157167273Y-119349866D01*
X157090644Y-119349398D01*
X157045282Y-119349121D01*
X157038231Y-119349078D01*
X157031454Y-119351015D01*
X157031453Y-119351015D01*
X156920935Y-119382601D01*
X156920933Y-119382602D01*
X156914155Y-119384539D01*
X156805019Y-119453399D01*
X156719596Y-119550122D01*
X156664754Y-119666932D01*
X156644901Y-119794440D01*
X135340016Y-119794440D01*
X135336839Y-119772259D01*
X135283428Y-119654788D01*
X135199193Y-119557028D01*
X135193276Y-119553193D01*
X135193274Y-119553191D01*
X135096824Y-119490677D01*
X135090906Y-119486841D01*
X135084150Y-119484821D01*
X135084149Y-119484820D01*
X135009089Y-119462372D01*
X134967273Y-119449866D01*
X134890644Y-119449398D01*
X134845282Y-119449121D01*
X134838231Y-119449078D01*
X134831454Y-119451015D01*
X134831453Y-119451015D01*
X134720935Y-119482601D01*
X134720933Y-119482602D01*
X134714155Y-119484539D01*
X134605019Y-119553399D01*
X134519596Y-119650122D01*
X134464754Y-119766932D01*
X134444901Y-119894440D01*
X128700000Y-119894440D01*
X128700000Y-118394440D01*
X134444901Y-118394440D01*
X134445816Y-118401437D01*
X134445816Y-118401438D01*
X134447082Y-118411120D01*
X134461633Y-118522394D01*
X134464471Y-118528845D01*
X134464472Y-118528847D01*
X134471458Y-118544724D01*
X134513605Y-118640510D01*
X134555122Y-118689901D01*
X134592100Y-118733892D01*
X134592103Y-118733894D01*
X134596639Y-118739291D01*
X134704060Y-118810796D01*
X134710788Y-118812898D01*
X134710790Y-118812899D01*
X134765646Y-118830037D01*
X134827233Y-118849278D01*
X134891744Y-118850460D01*
X134949202Y-118851514D01*
X134949204Y-118851514D01*
X134956255Y-118851643D01*
X134963058Y-118849788D01*
X134963060Y-118849788D01*
X135004828Y-118838400D01*
X135080755Y-118817700D01*
X135190724Y-118750179D01*
X135277322Y-118654507D01*
X135333588Y-118538375D01*
X135354997Y-118411120D01*
X135355133Y-118400000D01*
X135354337Y-118394440D01*
X156644901Y-118394440D01*
X156645816Y-118401437D01*
X156645816Y-118401438D01*
X156647082Y-118411120D01*
X156661633Y-118522394D01*
X156664471Y-118528845D01*
X156664472Y-118528847D01*
X156671458Y-118544724D01*
X156713605Y-118640510D01*
X156755122Y-118689901D01*
X156792100Y-118733892D01*
X156792103Y-118733894D01*
X156796639Y-118739291D01*
X156904060Y-118810796D01*
X156910788Y-118812898D01*
X156910790Y-118812899D01*
X156965646Y-118830037D01*
X157027233Y-118849278D01*
X157091744Y-118850460D01*
X157149202Y-118851514D01*
X157149204Y-118851514D01*
X157156255Y-118851643D01*
X157163058Y-118849788D01*
X157163060Y-118849788D01*
X157204828Y-118838400D01*
X157280755Y-118817700D01*
X157390724Y-118750179D01*
X157477322Y-118654507D01*
X157533588Y-118538375D01*
X157554997Y-118411120D01*
X157555133Y-118400000D01*
X157536839Y-118272259D01*
X157483428Y-118154788D01*
X157399193Y-118057028D01*
X157393276Y-118053193D01*
X157393274Y-118053191D01*
X157296824Y-117990677D01*
X157290906Y-117986841D01*
X157284150Y-117984821D01*
X157284149Y-117984820D01*
X157241335Y-117972016D01*
X157167273Y-117949866D01*
X157090644Y-117949398D01*
X157045282Y-117949121D01*
X157038231Y-117949078D01*
X157031454Y-117951015D01*
X157031453Y-117951015D01*
X156920935Y-117982601D01*
X156920933Y-117982602D01*
X156914155Y-117984539D01*
X156805019Y-118053399D01*
X156719596Y-118150122D01*
X156664754Y-118266932D01*
X156644901Y-118394440D01*
X135354337Y-118394440D01*
X135336839Y-118272259D01*
X135283428Y-118154788D01*
X135199193Y-118057028D01*
X135193276Y-118053193D01*
X135193274Y-118053191D01*
X135096824Y-117990677D01*
X135090906Y-117986841D01*
X135084150Y-117984821D01*
X135084149Y-117984820D01*
X135041335Y-117972016D01*
X134967273Y-117949866D01*
X134890644Y-117949398D01*
X134845282Y-117949121D01*
X134838231Y-117949078D01*
X134831454Y-117951015D01*
X134831453Y-117951015D01*
X134720935Y-117982601D01*
X134720933Y-117982602D01*
X134714155Y-117984539D01*
X134605019Y-118053399D01*
X134519596Y-118150122D01*
X134464754Y-118266932D01*
X134444901Y-118394440D01*
X128700000Y-118394440D01*
X128700000Y-115694440D01*
X129944901Y-115694440D01*
X129945816Y-115701437D01*
X129945816Y-115701438D01*
X129947082Y-115711120D01*
X129961633Y-115822394D01*
X129964471Y-115828845D01*
X129964472Y-115828847D01*
X129971458Y-115844724D01*
X130013605Y-115940510D01*
X130055122Y-115989900D01*
X130092100Y-116033892D01*
X130092103Y-116033894D01*
X130096639Y-116039291D01*
X130204060Y-116110796D01*
X130210788Y-116112898D01*
X130210790Y-116112899D01*
X130265647Y-116130037D01*
X130327233Y-116149278D01*
X130391744Y-116150461D01*
X130449202Y-116151514D01*
X130449204Y-116151514D01*
X130456255Y-116151643D01*
X130463058Y-116149788D01*
X130463060Y-116149788D01*
X130504828Y-116138400D01*
X130580755Y-116117700D01*
X130690724Y-116050179D01*
X130777322Y-115954507D01*
X130833588Y-115838375D01*
X130834758Y-115831420D01*
X130834759Y-115831417D01*
X130853175Y-115721949D01*
X130861312Y-115706351D01*
X130857380Y-115693994D01*
X131039163Y-115693994D01*
X131039440Y-115694276D01*
X131048967Y-115725536D01*
X131061633Y-115822394D01*
X131064471Y-115828845D01*
X131064472Y-115828847D01*
X131071458Y-115844724D01*
X131113605Y-115940510D01*
X131155122Y-115989900D01*
X131192100Y-116033892D01*
X131192103Y-116033894D01*
X131196639Y-116039291D01*
X131304060Y-116110796D01*
X131310788Y-116112898D01*
X131310790Y-116112899D01*
X131365647Y-116130037D01*
X131427233Y-116149278D01*
X131491744Y-116150461D01*
X131549202Y-116151514D01*
X131549204Y-116151514D01*
X131556255Y-116151643D01*
X131563058Y-116149788D01*
X131563060Y-116149788D01*
X131604828Y-116138400D01*
X131680755Y-116117700D01*
X131790724Y-116050179D01*
X131877322Y-115954507D01*
X131933588Y-115838375D01*
X131934758Y-115831420D01*
X131934759Y-115831417D01*
X131953175Y-115721949D01*
X131961312Y-115706351D01*
X131957380Y-115693994D01*
X132139163Y-115693994D01*
X132139440Y-115694276D01*
X132148967Y-115725536D01*
X132161633Y-115822394D01*
X132164471Y-115828845D01*
X132164472Y-115828847D01*
X132171458Y-115844724D01*
X132213605Y-115940510D01*
X132255122Y-115989900D01*
X132292100Y-116033892D01*
X132292103Y-116033894D01*
X132296639Y-116039291D01*
X132404060Y-116110796D01*
X132410788Y-116112898D01*
X132410790Y-116112899D01*
X132465647Y-116130037D01*
X132527233Y-116149278D01*
X132591744Y-116150461D01*
X132649202Y-116151514D01*
X132649204Y-116151514D01*
X132656255Y-116151643D01*
X132663058Y-116149788D01*
X132663060Y-116149788D01*
X132704828Y-116138400D01*
X132780755Y-116117700D01*
X132890724Y-116050179D01*
X132977322Y-115954507D01*
X133033588Y-115838375D01*
X133052572Y-115725536D01*
X133054363Y-115714891D01*
X133054363Y-115714886D01*
X133054997Y-115711120D01*
X133055133Y-115700000D01*
X133036839Y-115572259D01*
X132983428Y-115454788D01*
X132899193Y-115357028D01*
X132893276Y-115353193D01*
X132893274Y-115353191D01*
X132796824Y-115290677D01*
X132790906Y-115286841D01*
X132784150Y-115284821D01*
X132784149Y-115284820D01*
X132741335Y-115272016D01*
X132667273Y-115249866D01*
X132590644Y-115249398D01*
X132545282Y-115249121D01*
X132538231Y-115249078D01*
X132531454Y-115251015D01*
X132531453Y-115251015D01*
X132420935Y-115282601D01*
X132420933Y-115282602D01*
X132414155Y-115284539D01*
X132305019Y-115353399D01*
X132219596Y-115450122D01*
X132164754Y-115566932D01*
X132163669Y-115573902D01*
X132147550Y-115677427D01*
X132139163Y-115693994D01*
X131957380Y-115693994D01*
X131951729Y-115676231D01*
X131937839Y-115579243D01*
X131936839Y-115572259D01*
X131883428Y-115454788D01*
X131799193Y-115357028D01*
X131793276Y-115353193D01*
X131793274Y-115353191D01*
X131696824Y-115290677D01*
X131690906Y-115286841D01*
X131684150Y-115284821D01*
X131684149Y-115284820D01*
X131641335Y-115272016D01*
X131567273Y-115249866D01*
X131490644Y-115249398D01*
X131445282Y-115249121D01*
X131438231Y-115249078D01*
X131431454Y-115251015D01*
X131431453Y-115251015D01*
X131320935Y-115282601D01*
X131320933Y-115282602D01*
X131314155Y-115284539D01*
X131205019Y-115353399D01*
X131119596Y-115450122D01*
X131064754Y-115566932D01*
X131063669Y-115573902D01*
X131047550Y-115677427D01*
X131039163Y-115693994D01*
X130857380Y-115693994D01*
X130851729Y-115676231D01*
X130837839Y-115579243D01*
X130836839Y-115572259D01*
X130783428Y-115454788D01*
X130699193Y-115357028D01*
X130693276Y-115353193D01*
X130693274Y-115353191D01*
X130596824Y-115290677D01*
X130590906Y-115286841D01*
X130584150Y-115284821D01*
X130584149Y-115284820D01*
X130541335Y-115272016D01*
X130467273Y-115249866D01*
X130390644Y-115249398D01*
X130345282Y-115249121D01*
X130338231Y-115249078D01*
X130331454Y-115251015D01*
X130331453Y-115251015D01*
X130220935Y-115282601D01*
X130220933Y-115282602D01*
X130214155Y-115284539D01*
X130105019Y-115353399D01*
X130019596Y-115450122D01*
X129964754Y-115566932D01*
X129944901Y-115694440D01*
X128700000Y-115694440D01*
X128700000Y-114594440D01*
X129944901Y-114594440D01*
X129945816Y-114601437D01*
X129945816Y-114601438D01*
X129947082Y-114611120D01*
X129961633Y-114722394D01*
X129964471Y-114728845D01*
X129964472Y-114728847D01*
X129971458Y-114744724D01*
X130013605Y-114840510D01*
X130055122Y-114889901D01*
X130092100Y-114933892D01*
X130092103Y-114933894D01*
X130096639Y-114939291D01*
X130204060Y-115010796D01*
X130210788Y-115012898D01*
X130210790Y-115012899D01*
X130265647Y-115030037D01*
X130327233Y-115049278D01*
X130391744Y-115050460D01*
X130449202Y-115051514D01*
X130449204Y-115051514D01*
X130456255Y-115051643D01*
X130463058Y-115049788D01*
X130463060Y-115049788D01*
X130504828Y-115038400D01*
X130580755Y-115017700D01*
X130690724Y-114950179D01*
X130777322Y-114854507D01*
X130833588Y-114738375D01*
X130854997Y-114611120D01*
X130855133Y-114600000D01*
X130836839Y-114472259D01*
X130783428Y-114354788D01*
X130699193Y-114257028D01*
X130693276Y-114253193D01*
X130693274Y-114253191D01*
X130596824Y-114190677D01*
X130590906Y-114186841D01*
X130584150Y-114184821D01*
X130584149Y-114184820D01*
X130541335Y-114172016D01*
X130467273Y-114149866D01*
X130390644Y-114149398D01*
X130345282Y-114149121D01*
X130338231Y-114149078D01*
X130331454Y-114151015D01*
X130331453Y-114151015D01*
X130220935Y-114182601D01*
X130220933Y-114182602D01*
X130214155Y-114184539D01*
X130105019Y-114253399D01*
X130019596Y-114350122D01*
X129964754Y-114466932D01*
X129944901Y-114594440D01*
X128700000Y-114594440D01*
X128700000Y-113494440D01*
X129944901Y-113494440D01*
X129945816Y-113501437D01*
X129945816Y-113501438D01*
X129947082Y-113511120D01*
X129961633Y-113622394D01*
X129964471Y-113628845D01*
X129964472Y-113628847D01*
X129971458Y-113644724D01*
X130013605Y-113740510D01*
X130055122Y-113789900D01*
X130092100Y-113833892D01*
X130092103Y-113833894D01*
X130096639Y-113839291D01*
X130204060Y-113910796D01*
X130210788Y-113912898D01*
X130210790Y-113912899D01*
X130265646Y-113930037D01*
X130327233Y-113949278D01*
X130391744Y-113950461D01*
X130449202Y-113951514D01*
X130449204Y-113951514D01*
X130456255Y-113951643D01*
X130463058Y-113949788D01*
X130463060Y-113949788D01*
X130504828Y-113938400D01*
X130580755Y-113917700D01*
X130690724Y-113850179D01*
X130777322Y-113754507D01*
X130833588Y-113638375D01*
X130854997Y-113511120D01*
X130855133Y-113500000D01*
X130836839Y-113372259D01*
X130783428Y-113254788D01*
X130699193Y-113157028D01*
X130693276Y-113153193D01*
X130693274Y-113153191D01*
X130596824Y-113090677D01*
X130590906Y-113086841D01*
X130584150Y-113084821D01*
X130584149Y-113084820D01*
X130480664Y-113053871D01*
X130467273Y-113049866D01*
X130390644Y-113049398D01*
X130345282Y-113049121D01*
X130338231Y-113049078D01*
X130331454Y-113051015D01*
X130331453Y-113051015D01*
X130220935Y-113082601D01*
X130220933Y-113082602D01*
X130214155Y-113084539D01*
X130105019Y-113153399D01*
X130019596Y-113250122D01*
X129964754Y-113366932D01*
X129944901Y-113494440D01*
X128700000Y-113494440D01*
X128700000Y-112394440D01*
X129944901Y-112394440D01*
X129945816Y-112401437D01*
X129945816Y-112401438D01*
X129947082Y-112411120D01*
X129961633Y-112522394D01*
X129964471Y-112528845D01*
X129964472Y-112528847D01*
X129980748Y-112565837D01*
X130013605Y-112640510D01*
X130053076Y-112687466D01*
X130092100Y-112733892D01*
X130092103Y-112733894D01*
X130096639Y-112739291D01*
X130204060Y-112810796D01*
X130210788Y-112812898D01*
X130210790Y-112812899D01*
X130265647Y-112830037D01*
X130327233Y-112849278D01*
X130391744Y-112850461D01*
X130449202Y-112851514D01*
X130449204Y-112851514D01*
X130456255Y-112851643D01*
X130463058Y-112849788D01*
X130463060Y-112849788D01*
X130504921Y-112838375D01*
X130580755Y-112817700D01*
X130690724Y-112750179D01*
X130722665Y-112714891D01*
X130741176Y-112694440D01*
X149044901Y-112694440D01*
X149045816Y-112701437D01*
X149045816Y-112701438D01*
X149047082Y-112711120D01*
X149061633Y-112822394D01*
X149064471Y-112828845D01*
X149064472Y-112828847D01*
X149110764Y-112934054D01*
X149113605Y-112940510D01*
X149155122Y-112989900D01*
X149192100Y-113033892D01*
X149192103Y-113033894D01*
X149196639Y-113039291D01*
X149304060Y-113110796D01*
X149310788Y-113112898D01*
X149310790Y-113112899D01*
X149365646Y-113130037D01*
X149427233Y-113149278D01*
X149491744Y-113150461D01*
X149549202Y-113151514D01*
X149549204Y-113151514D01*
X149556255Y-113151643D01*
X149563058Y-113149788D01*
X149563060Y-113149788D01*
X149604828Y-113138400D01*
X149680755Y-113117700D01*
X149790724Y-113050179D01*
X149877322Y-112954507D01*
X149928243Y-112849407D01*
X149930512Y-112844724D01*
X149930512Y-112844723D01*
X149933588Y-112838375D01*
X149954997Y-112711120D01*
X149955133Y-112700000D01*
X149936839Y-112572259D01*
X149883428Y-112454788D01*
X149799193Y-112357028D01*
X149793276Y-112353193D01*
X149793274Y-112353191D01*
X149696824Y-112290677D01*
X149690906Y-112286841D01*
X149684150Y-112284821D01*
X149684149Y-112284820D01*
X149620675Y-112265837D01*
X149567273Y-112249866D01*
X149490644Y-112249398D01*
X149445282Y-112249121D01*
X149438231Y-112249078D01*
X149431454Y-112251015D01*
X149431453Y-112251015D01*
X149320935Y-112282601D01*
X149320933Y-112282602D01*
X149314155Y-112284539D01*
X149205019Y-112353399D01*
X149119596Y-112450122D01*
X149064754Y-112566932D01*
X149044901Y-112694440D01*
X130741176Y-112694440D01*
X130772590Y-112659735D01*
X130772590Y-112659734D01*
X130777322Y-112654507D01*
X130833588Y-112538375D01*
X130847362Y-112456504D01*
X130854363Y-112414891D01*
X130854363Y-112414886D01*
X130854997Y-112411120D01*
X130855133Y-112400000D01*
X130836839Y-112272259D01*
X130783428Y-112154788D01*
X130699193Y-112057028D01*
X130693276Y-112053193D01*
X130693274Y-112053191D01*
X130596824Y-111990677D01*
X130590906Y-111986841D01*
X130584150Y-111984821D01*
X130584149Y-111984820D01*
X130541335Y-111972016D01*
X130467273Y-111949866D01*
X130390644Y-111949398D01*
X130345282Y-111949121D01*
X130338231Y-111949078D01*
X130331454Y-111951015D01*
X130331453Y-111951015D01*
X130220935Y-111982601D01*
X130220933Y-111982602D01*
X130214155Y-111984539D01*
X130105019Y-112053399D01*
X130019596Y-112150122D01*
X129964754Y-112266932D01*
X129944901Y-112394440D01*
X128700000Y-112394440D01*
X128700000Y-111294440D01*
X129944901Y-111294440D01*
X129945816Y-111301437D01*
X129945816Y-111301438D01*
X129947082Y-111311120D01*
X129961633Y-111422394D01*
X129964471Y-111428845D01*
X129964472Y-111428847D01*
X129971458Y-111444724D01*
X130013605Y-111540510D01*
X130055122Y-111589901D01*
X130092100Y-111633892D01*
X130092103Y-111633894D01*
X130096639Y-111639291D01*
X130204060Y-111710796D01*
X130210788Y-111712898D01*
X130210790Y-111712899D01*
X130265646Y-111730037D01*
X130327233Y-111749278D01*
X130391744Y-111750461D01*
X130449202Y-111751514D01*
X130449204Y-111751514D01*
X130456255Y-111751643D01*
X130463058Y-111749788D01*
X130463060Y-111749788D01*
X130504828Y-111738400D01*
X130580755Y-111717700D01*
X130690724Y-111650179D01*
X130777322Y-111554507D01*
X130833588Y-111438375D01*
X130854997Y-111311120D01*
X130855133Y-111300000D01*
X130836839Y-111172259D01*
X130783428Y-111054788D01*
X130699193Y-110957028D01*
X130693276Y-110953193D01*
X130693274Y-110953191D01*
X130596824Y-110890677D01*
X130590906Y-110886841D01*
X130584150Y-110884821D01*
X130584149Y-110884820D01*
X130541335Y-110872016D01*
X130467273Y-110849866D01*
X130390644Y-110849398D01*
X130345282Y-110849121D01*
X130338231Y-110849078D01*
X130331454Y-110851015D01*
X130331453Y-110851015D01*
X130220935Y-110882601D01*
X130220933Y-110882602D01*
X130214155Y-110884539D01*
X130105019Y-110953399D01*
X130019596Y-111050122D01*
X129964754Y-111166932D01*
X129944901Y-111294440D01*
X128700000Y-111294440D01*
X128700000Y-110194440D01*
X129944901Y-110194440D01*
X129945816Y-110201437D01*
X129945816Y-110201438D01*
X129947082Y-110211120D01*
X129961633Y-110322394D01*
X129964471Y-110328845D01*
X129964472Y-110328847D01*
X129971458Y-110344724D01*
X130013605Y-110440510D01*
X130055122Y-110489900D01*
X130092100Y-110533892D01*
X130092103Y-110533894D01*
X130096639Y-110539291D01*
X130204060Y-110610796D01*
X130210788Y-110612898D01*
X130210790Y-110612899D01*
X130265646Y-110630037D01*
X130327233Y-110649278D01*
X130391744Y-110650461D01*
X130449202Y-110651514D01*
X130449204Y-110651514D01*
X130456255Y-110651643D01*
X130463058Y-110649788D01*
X130463060Y-110649788D01*
X130504828Y-110638400D01*
X130580755Y-110617700D01*
X130690724Y-110550179D01*
X130777322Y-110454507D01*
X130833588Y-110338375D01*
X130834758Y-110331420D01*
X130834759Y-110331417D01*
X130853175Y-110221949D01*
X130861312Y-110206351D01*
X130857380Y-110193994D01*
X131039163Y-110193994D01*
X131039440Y-110194276D01*
X131048967Y-110225536D01*
X131061633Y-110322394D01*
X131064471Y-110328845D01*
X131064472Y-110328847D01*
X131071458Y-110344724D01*
X131113605Y-110440510D01*
X131155122Y-110489900D01*
X131192100Y-110533892D01*
X131192103Y-110533894D01*
X131196639Y-110539291D01*
X131304060Y-110610796D01*
X131310788Y-110612898D01*
X131310790Y-110612899D01*
X131365646Y-110630037D01*
X131427233Y-110649278D01*
X131491744Y-110650461D01*
X131549202Y-110651514D01*
X131549204Y-110651514D01*
X131556255Y-110651643D01*
X131563058Y-110649788D01*
X131563060Y-110649788D01*
X131604828Y-110638400D01*
X131680755Y-110617700D01*
X131790724Y-110550179D01*
X131877322Y-110454507D01*
X131933588Y-110338375D01*
X131934758Y-110331420D01*
X131934759Y-110331417D01*
X131953175Y-110221949D01*
X131961312Y-110206351D01*
X131957380Y-110193994D01*
X132139163Y-110193994D01*
X132139440Y-110194276D01*
X132148967Y-110225536D01*
X132161633Y-110322394D01*
X132164471Y-110328845D01*
X132164472Y-110328847D01*
X132171458Y-110344724D01*
X132213605Y-110440510D01*
X132255122Y-110489900D01*
X132292100Y-110533892D01*
X132292103Y-110533894D01*
X132296639Y-110539291D01*
X132404060Y-110610796D01*
X132410788Y-110612898D01*
X132410790Y-110612899D01*
X132465646Y-110630037D01*
X132527233Y-110649278D01*
X132591744Y-110650461D01*
X132649202Y-110651514D01*
X132649204Y-110651514D01*
X132656255Y-110651643D01*
X132663058Y-110649788D01*
X132663060Y-110649788D01*
X132704828Y-110638400D01*
X132780755Y-110617700D01*
X132890724Y-110550179D01*
X132977322Y-110454507D01*
X133033588Y-110338375D01*
X133052572Y-110225536D01*
X133054363Y-110214891D01*
X133054363Y-110214886D01*
X133054997Y-110211120D01*
X133055133Y-110200000D01*
X133036839Y-110072259D01*
X132983428Y-109954788D01*
X132899193Y-109857028D01*
X132893276Y-109853193D01*
X132893274Y-109853191D01*
X132796824Y-109790677D01*
X132790906Y-109786841D01*
X132784150Y-109784821D01*
X132784149Y-109784820D01*
X132741335Y-109772016D01*
X132667273Y-109749866D01*
X132590644Y-109749398D01*
X132545282Y-109749121D01*
X132538231Y-109749078D01*
X132531454Y-109751015D01*
X132531453Y-109751015D01*
X132420935Y-109782601D01*
X132420933Y-109782602D01*
X132414155Y-109784539D01*
X132305019Y-109853399D01*
X132219596Y-109950122D01*
X132164754Y-110066932D01*
X132163669Y-110073902D01*
X132147550Y-110177427D01*
X132139163Y-110193994D01*
X131957380Y-110193994D01*
X131951729Y-110176231D01*
X131937839Y-110079243D01*
X131936839Y-110072259D01*
X131883428Y-109954788D01*
X131799193Y-109857028D01*
X131793276Y-109853193D01*
X131793274Y-109853191D01*
X131696824Y-109790677D01*
X131690906Y-109786841D01*
X131684150Y-109784821D01*
X131684149Y-109784820D01*
X131641335Y-109772016D01*
X131567273Y-109749866D01*
X131490644Y-109749398D01*
X131445282Y-109749121D01*
X131438231Y-109749078D01*
X131431454Y-109751015D01*
X131431453Y-109751015D01*
X131320935Y-109782601D01*
X131320933Y-109782602D01*
X131314155Y-109784539D01*
X131205019Y-109853399D01*
X131119596Y-109950122D01*
X131064754Y-110066932D01*
X131063669Y-110073902D01*
X131047550Y-110177427D01*
X131039163Y-110193994D01*
X130857380Y-110193994D01*
X130851729Y-110176231D01*
X130837839Y-110079243D01*
X130836839Y-110072259D01*
X130783428Y-109954788D01*
X130699193Y-109857028D01*
X130693276Y-109853193D01*
X130693274Y-109853191D01*
X130596824Y-109790677D01*
X130590906Y-109786841D01*
X130584150Y-109784821D01*
X130584149Y-109784820D01*
X130541335Y-109772016D01*
X130467273Y-109749866D01*
X130390644Y-109749398D01*
X130345282Y-109749121D01*
X130338231Y-109749078D01*
X130331454Y-109751015D01*
X130331453Y-109751015D01*
X130220935Y-109782601D01*
X130220933Y-109782602D01*
X130214155Y-109784539D01*
X130105019Y-109853399D01*
X130019596Y-109950122D01*
X129964754Y-110066932D01*
X129944901Y-110194440D01*
X128700000Y-110194440D01*
X128700000Y-106994440D01*
X134444901Y-106994440D01*
X134445816Y-107001437D01*
X134445816Y-107001438D01*
X134447082Y-107011120D01*
X134461633Y-107122394D01*
X134464471Y-107128845D01*
X134464472Y-107128847D01*
X134471458Y-107144724D01*
X134513605Y-107240510D01*
X134555122Y-107289901D01*
X134592100Y-107333892D01*
X134592103Y-107333894D01*
X134596639Y-107339291D01*
X134704060Y-107410796D01*
X134710788Y-107412898D01*
X134710790Y-107412899D01*
X134765646Y-107430037D01*
X134827233Y-107449278D01*
X134891744Y-107450461D01*
X134949202Y-107451514D01*
X134949204Y-107451514D01*
X134956255Y-107451643D01*
X134963058Y-107449788D01*
X134963060Y-107449788D01*
X135004828Y-107438400D01*
X135080755Y-107417700D01*
X135190724Y-107350179D01*
X135277322Y-107254507D01*
X135333588Y-107138375D01*
X135354997Y-107011120D01*
X135355133Y-107000000D01*
X135354337Y-106994440D01*
X156644901Y-106994440D01*
X156645816Y-107001437D01*
X156645816Y-107001438D01*
X156647082Y-107011120D01*
X156661633Y-107122394D01*
X156664471Y-107128845D01*
X156664472Y-107128847D01*
X156671458Y-107144724D01*
X156713605Y-107240510D01*
X156755122Y-107289901D01*
X156792100Y-107333892D01*
X156792103Y-107333894D01*
X156796639Y-107339291D01*
X156904060Y-107410796D01*
X156910788Y-107412898D01*
X156910790Y-107412899D01*
X156965646Y-107430037D01*
X157027233Y-107449278D01*
X157091744Y-107450461D01*
X157149202Y-107451514D01*
X157149204Y-107451514D01*
X157156255Y-107451643D01*
X157163058Y-107449788D01*
X157163060Y-107449788D01*
X157204828Y-107438400D01*
X157280755Y-107417700D01*
X157390724Y-107350179D01*
X157477322Y-107254507D01*
X157533588Y-107138375D01*
X157554997Y-107011120D01*
X157555133Y-107000000D01*
X157536839Y-106872259D01*
X157483428Y-106754788D01*
X157399193Y-106657028D01*
X157393276Y-106653193D01*
X157393274Y-106653191D01*
X157296824Y-106590677D01*
X157290906Y-106586841D01*
X157284150Y-106584821D01*
X157284149Y-106584820D01*
X157241335Y-106572016D01*
X157167273Y-106549866D01*
X157090644Y-106549398D01*
X157045282Y-106549121D01*
X157038231Y-106549078D01*
X157031454Y-106551015D01*
X157031453Y-106551015D01*
X156920935Y-106582601D01*
X156920933Y-106582602D01*
X156914155Y-106584539D01*
X156805019Y-106653399D01*
X156719596Y-106750122D01*
X156664754Y-106866932D01*
X156644901Y-106994440D01*
X135354337Y-106994440D01*
X135336839Y-106872259D01*
X135283428Y-106754788D01*
X135199193Y-106657028D01*
X135193276Y-106653193D01*
X135193274Y-106653191D01*
X135096824Y-106590677D01*
X135090906Y-106586841D01*
X135084150Y-106584821D01*
X135084149Y-106584820D01*
X135041335Y-106572016D01*
X134967273Y-106549866D01*
X134890644Y-106549398D01*
X134845282Y-106549121D01*
X134838231Y-106549078D01*
X134831454Y-106551015D01*
X134831453Y-106551015D01*
X134720935Y-106582601D01*
X134720933Y-106582602D01*
X134714155Y-106584539D01*
X134605019Y-106653399D01*
X134519596Y-106750122D01*
X134464754Y-106866932D01*
X134444901Y-106994440D01*
X128700000Y-106994440D01*
X128700000Y-105894440D01*
X134444901Y-105894440D01*
X134445816Y-105901437D01*
X134445816Y-105901438D01*
X134447082Y-105911120D01*
X134461633Y-106022394D01*
X134464471Y-106028845D01*
X134464472Y-106028847D01*
X134471458Y-106044724D01*
X134513605Y-106140510D01*
X134555122Y-106189901D01*
X134592100Y-106233892D01*
X134592103Y-106233894D01*
X134596639Y-106239291D01*
X134704060Y-106310796D01*
X134710788Y-106312898D01*
X134710790Y-106312899D01*
X134765647Y-106330037D01*
X134827233Y-106349278D01*
X134891744Y-106350461D01*
X134949202Y-106351514D01*
X134949204Y-106351514D01*
X134956255Y-106351643D01*
X134963058Y-106349788D01*
X134963060Y-106349788D01*
X135004828Y-106338400D01*
X135080755Y-106317700D01*
X135190724Y-106250179D01*
X135277322Y-106154507D01*
X135333588Y-106038375D01*
X135354997Y-105911120D01*
X135355133Y-105900000D01*
X135354337Y-105894440D01*
X156644901Y-105894440D01*
X156645816Y-105901437D01*
X156645816Y-105901438D01*
X156647082Y-105911120D01*
X156661633Y-106022394D01*
X156664471Y-106028845D01*
X156664472Y-106028847D01*
X156671458Y-106044724D01*
X156713605Y-106140510D01*
X156755122Y-106189901D01*
X156792100Y-106233892D01*
X156792103Y-106233894D01*
X156796639Y-106239291D01*
X156904060Y-106310796D01*
X156910788Y-106312898D01*
X156910790Y-106312899D01*
X156965647Y-106330037D01*
X157027233Y-106349278D01*
X157091744Y-106350461D01*
X157149202Y-106351514D01*
X157149204Y-106351514D01*
X157156255Y-106351643D01*
X157163058Y-106349788D01*
X157163060Y-106349788D01*
X157204828Y-106338400D01*
X157280755Y-106317700D01*
X157390724Y-106250179D01*
X157477322Y-106154507D01*
X157533588Y-106038375D01*
X157554997Y-105911120D01*
X157555133Y-105900000D01*
X157536839Y-105772259D01*
X157483428Y-105654788D01*
X157399193Y-105557028D01*
X157393276Y-105553193D01*
X157393274Y-105553191D01*
X157296824Y-105490677D01*
X157290906Y-105486841D01*
X157284150Y-105484821D01*
X157284149Y-105484820D01*
X157241335Y-105472016D01*
X157167273Y-105449866D01*
X157090644Y-105449398D01*
X157045282Y-105449121D01*
X157038231Y-105449078D01*
X157031454Y-105451015D01*
X157031453Y-105451015D01*
X156920935Y-105482601D01*
X156920933Y-105482602D01*
X156914155Y-105484539D01*
X156805019Y-105553399D01*
X156719596Y-105650122D01*
X156664754Y-105766932D01*
X156644901Y-105894440D01*
X135354337Y-105894440D01*
X135336839Y-105772259D01*
X135283428Y-105654788D01*
X135199193Y-105557028D01*
X135193276Y-105553193D01*
X135193274Y-105553191D01*
X135096824Y-105490677D01*
X135090906Y-105486841D01*
X135084150Y-105484821D01*
X135084149Y-105484820D01*
X135041335Y-105472016D01*
X134967273Y-105449866D01*
X134890644Y-105449398D01*
X134845282Y-105449121D01*
X134838231Y-105449078D01*
X134831454Y-105451015D01*
X134831453Y-105451015D01*
X134720935Y-105482601D01*
X134720933Y-105482602D01*
X134714155Y-105484539D01*
X134605019Y-105553399D01*
X134519596Y-105650122D01*
X134464754Y-105766932D01*
X134444901Y-105894440D01*
X128700000Y-105894440D01*
X128700000Y-104894440D01*
X137544901Y-104894440D01*
X137545816Y-104901437D01*
X137545816Y-104901438D01*
X137547082Y-104911120D01*
X137561633Y-105022394D01*
X137564471Y-105028845D01*
X137564472Y-105028847D01*
X137571458Y-105044724D01*
X137613605Y-105140510D01*
X137655122Y-105189901D01*
X137692100Y-105233892D01*
X137692103Y-105233894D01*
X137696639Y-105239291D01*
X137804060Y-105310796D01*
X137810788Y-105312898D01*
X137810790Y-105312899D01*
X137865646Y-105330037D01*
X137927233Y-105349278D01*
X137991744Y-105350461D01*
X138049202Y-105351514D01*
X138049204Y-105351514D01*
X138056255Y-105351643D01*
X138063058Y-105349788D01*
X138063060Y-105349788D01*
X138104828Y-105338400D01*
X138180755Y-105317700D01*
X138290724Y-105250179D01*
X138377322Y-105154507D01*
X138433588Y-105038375D01*
X138454997Y-104911120D01*
X138455133Y-104900000D01*
X138454337Y-104894440D01*
X147144901Y-104894440D01*
X147145816Y-104901437D01*
X147145816Y-104901438D01*
X147147082Y-104911120D01*
X147161633Y-105022394D01*
X147164471Y-105028845D01*
X147164472Y-105028847D01*
X147171458Y-105044724D01*
X147213605Y-105140510D01*
X147255122Y-105189901D01*
X147292100Y-105233892D01*
X147292103Y-105233894D01*
X147296639Y-105239291D01*
X147404060Y-105310796D01*
X147410788Y-105312898D01*
X147410790Y-105312899D01*
X147465646Y-105330037D01*
X147527233Y-105349278D01*
X147591744Y-105350461D01*
X147649202Y-105351514D01*
X147649204Y-105351514D01*
X147656255Y-105351643D01*
X147663058Y-105349788D01*
X147663060Y-105349788D01*
X147704828Y-105338400D01*
X147780755Y-105317700D01*
X147890724Y-105250179D01*
X147977322Y-105154507D01*
X148033588Y-105038375D01*
X148054997Y-104911120D01*
X148055133Y-104900000D01*
X148036839Y-104772259D01*
X147983428Y-104654788D01*
X147899193Y-104557028D01*
X147893276Y-104553193D01*
X147893274Y-104553191D01*
X147796824Y-104490677D01*
X147790906Y-104486841D01*
X147784150Y-104484821D01*
X147784149Y-104484820D01*
X147741335Y-104472016D01*
X147667273Y-104449866D01*
X147590644Y-104449398D01*
X147545282Y-104449121D01*
X147538231Y-104449078D01*
X147531454Y-104451015D01*
X147531453Y-104451015D01*
X147420935Y-104482601D01*
X147420933Y-104482602D01*
X147414155Y-104484539D01*
X147305019Y-104553399D01*
X147219596Y-104650122D01*
X147164754Y-104766932D01*
X147144901Y-104894440D01*
X138454337Y-104894440D01*
X138436839Y-104772259D01*
X138383428Y-104654788D01*
X138299193Y-104557028D01*
X138293276Y-104553193D01*
X138293274Y-104553191D01*
X138196824Y-104490677D01*
X138190906Y-104486841D01*
X138184150Y-104484821D01*
X138184149Y-104484820D01*
X138141335Y-104472016D01*
X138067273Y-104449866D01*
X137990644Y-104449398D01*
X137945282Y-104449121D01*
X137938231Y-104449078D01*
X137931454Y-104451015D01*
X137931453Y-104451015D01*
X137820935Y-104482601D01*
X137820933Y-104482602D01*
X137814155Y-104484539D01*
X137705019Y-104553399D01*
X137619596Y-104650122D01*
X137564754Y-104766932D01*
X137544901Y-104894440D01*
X128700000Y-104894440D01*
X128700000Y-101994440D01*
X134444901Y-101994440D01*
X134445816Y-102001437D01*
X134445816Y-102001438D01*
X134447082Y-102011120D01*
X134461633Y-102122394D01*
X134464471Y-102128845D01*
X134464472Y-102128847D01*
X134495780Y-102200000D01*
X134513605Y-102240510D01*
X134555122Y-102289901D01*
X134592100Y-102333892D01*
X134592103Y-102333894D01*
X134596639Y-102339291D01*
X134704060Y-102410796D01*
X134710788Y-102412898D01*
X134710790Y-102412899D01*
X134765647Y-102430037D01*
X134827233Y-102449278D01*
X134891744Y-102450461D01*
X134949202Y-102451514D01*
X134949204Y-102451514D01*
X134956255Y-102451643D01*
X134963058Y-102449788D01*
X134963060Y-102449788D01*
X135020770Y-102434054D01*
X135080755Y-102417700D01*
X135190724Y-102350179D01*
X135200579Y-102339291D01*
X135272590Y-102259735D01*
X135272590Y-102259734D01*
X135277322Y-102254507D01*
X135306424Y-102194440D01*
X140109901Y-102194440D01*
X140110816Y-102201437D01*
X140110816Y-102201438D01*
X140112082Y-102211120D01*
X140126633Y-102322394D01*
X140129471Y-102328845D01*
X140129472Y-102328847D01*
X140166456Y-102412899D01*
X140178605Y-102440510D01*
X140220122Y-102489901D01*
X140257100Y-102533892D01*
X140257103Y-102533894D01*
X140261639Y-102539291D01*
X140369060Y-102610796D01*
X140375788Y-102612898D01*
X140375790Y-102612899D01*
X140430647Y-102630037D01*
X140492233Y-102649278D01*
X140556744Y-102650460D01*
X140614202Y-102651514D01*
X140614204Y-102651514D01*
X140621255Y-102651643D01*
X140628058Y-102649788D01*
X140628060Y-102649788D01*
X140669828Y-102638400D01*
X140745755Y-102617700D01*
X140855724Y-102550179D01*
X140942322Y-102454507D01*
X140998588Y-102338375D01*
X141019997Y-102211120D01*
X141020133Y-102200000D01*
X141019337Y-102194440D01*
X149709901Y-102194440D01*
X149710816Y-102201437D01*
X149710816Y-102201438D01*
X149712082Y-102211120D01*
X149726633Y-102322394D01*
X149729471Y-102328845D01*
X149729472Y-102328847D01*
X149766456Y-102412899D01*
X149778605Y-102440510D01*
X149820122Y-102489901D01*
X149857100Y-102533892D01*
X149857103Y-102533894D01*
X149861639Y-102539291D01*
X149969060Y-102610796D01*
X149975788Y-102612898D01*
X149975790Y-102612899D01*
X150030647Y-102630037D01*
X150092233Y-102649278D01*
X150156744Y-102650460D01*
X150214202Y-102651514D01*
X150214204Y-102651514D01*
X150221255Y-102651643D01*
X150228058Y-102649788D01*
X150228060Y-102649788D01*
X150269828Y-102638400D01*
X150345755Y-102617700D01*
X150455724Y-102550179D01*
X150542322Y-102454507D01*
X150598588Y-102338375D01*
X150619997Y-102211120D01*
X150620133Y-102200000D01*
X150601839Y-102072259D01*
X150566457Y-101994440D01*
X156644901Y-101994440D01*
X156645816Y-102001437D01*
X156645816Y-102001438D01*
X156647082Y-102011120D01*
X156661633Y-102122394D01*
X156664471Y-102128845D01*
X156664472Y-102128847D01*
X156695780Y-102200000D01*
X156713605Y-102240510D01*
X156755122Y-102289901D01*
X156792100Y-102333892D01*
X156792103Y-102333894D01*
X156796639Y-102339291D01*
X156904060Y-102410796D01*
X156910788Y-102412898D01*
X156910790Y-102412899D01*
X156965647Y-102430037D01*
X157027233Y-102449278D01*
X157091744Y-102450461D01*
X157149202Y-102451514D01*
X157149204Y-102451514D01*
X157156255Y-102451643D01*
X157163058Y-102449788D01*
X157163060Y-102449788D01*
X157220770Y-102434054D01*
X157280755Y-102417700D01*
X157390724Y-102350179D01*
X157400579Y-102339291D01*
X157472590Y-102259735D01*
X157472590Y-102259734D01*
X157477322Y-102254507D01*
X157533588Y-102138375D01*
X157554997Y-102011120D01*
X157555133Y-102000000D01*
X157536839Y-101872259D01*
X157483428Y-101754788D01*
X157399193Y-101657028D01*
X157393276Y-101653193D01*
X157393274Y-101653191D01*
X157296824Y-101590677D01*
X157290906Y-101586841D01*
X157284150Y-101584821D01*
X157284149Y-101584820D01*
X157241335Y-101572016D01*
X157167273Y-101549866D01*
X157090644Y-101549398D01*
X157045282Y-101549121D01*
X157038231Y-101549078D01*
X157031454Y-101551015D01*
X157031453Y-101551015D01*
X156920935Y-101582601D01*
X156920933Y-101582602D01*
X156914155Y-101584539D01*
X156805019Y-101653399D01*
X156719596Y-101750122D01*
X156664754Y-101866932D01*
X156644901Y-101994440D01*
X150566457Y-101994440D01*
X150548428Y-101954788D01*
X150483335Y-101879243D01*
X150468798Y-101862372D01*
X150468797Y-101862371D01*
X150464193Y-101857028D01*
X150458276Y-101853193D01*
X150458274Y-101853191D01*
X150361824Y-101790677D01*
X150355906Y-101786841D01*
X150349150Y-101784821D01*
X150349149Y-101784820D01*
X150306335Y-101772016D01*
X150232273Y-101749866D01*
X150155644Y-101749398D01*
X150110282Y-101749121D01*
X150103231Y-101749078D01*
X150096454Y-101751015D01*
X150096453Y-101751015D01*
X149985935Y-101782601D01*
X149985933Y-101782602D01*
X149979155Y-101784539D01*
X149870019Y-101853399D01*
X149784596Y-101950122D01*
X149729754Y-102066932D01*
X149709901Y-102194440D01*
X141019337Y-102194440D01*
X141001839Y-102072259D01*
X140948428Y-101954788D01*
X140883335Y-101879243D01*
X140868798Y-101862372D01*
X140868797Y-101862371D01*
X140864193Y-101857028D01*
X140858276Y-101853193D01*
X140858274Y-101853191D01*
X140761824Y-101790677D01*
X140755906Y-101786841D01*
X140749150Y-101784821D01*
X140749149Y-101784820D01*
X140706335Y-101772016D01*
X140632273Y-101749866D01*
X140555644Y-101749398D01*
X140510282Y-101749121D01*
X140503231Y-101749078D01*
X140496454Y-101751015D01*
X140496453Y-101751015D01*
X140385935Y-101782601D01*
X140385933Y-101782602D01*
X140379155Y-101784539D01*
X140270019Y-101853399D01*
X140184596Y-101950122D01*
X140129754Y-102066932D01*
X140109901Y-102194440D01*
X135306424Y-102194440D01*
X135333588Y-102138375D01*
X135354997Y-102011120D01*
X135355133Y-102000000D01*
X135336839Y-101872259D01*
X135283428Y-101754788D01*
X135199193Y-101657028D01*
X135193276Y-101653193D01*
X135193274Y-101653191D01*
X135096824Y-101590677D01*
X135090906Y-101586841D01*
X135084150Y-101584821D01*
X135084149Y-101584820D01*
X135041335Y-101572016D01*
X134967273Y-101549866D01*
X134890644Y-101549398D01*
X134845282Y-101549121D01*
X134838231Y-101549078D01*
X134831454Y-101551015D01*
X134831453Y-101551015D01*
X134720935Y-101582601D01*
X134720933Y-101582602D01*
X134714155Y-101584539D01*
X134605019Y-101653399D01*
X134519596Y-101750122D01*
X134464754Y-101866932D01*
X134444901Y-101994440D01*
X128700000Y-101994440D01*
X128700000Y-100594440D01*
X134444901Y-100594440D01*
X134445816Y-100601437D01*
X134445816Y-100601438D01*
X134447082Y-100611120D01*
X134461633Y-100722394D01*
X134464471Y-100728845D01*
X134464472Y-100728847D01*
X134472971Y-100748162D01*
X134513605Y-100840510D01*
X134555122Y-100889900D01*
X134592100Y-100933892D01*
X134592103Y-100933894D01*
X134596639Y-100939291D01*
X134704060Y-101010796D01*
X134710788Y-101012898D01*
X134710790Y-101012899D01*
X134765646Y-101030037D01*
X134827233Y-101049278D01*
X134891744Y-101050461D01*
X134949202Y-101051514D01*
X134949204Y-101051514D01*
X134956255Y-101051643D01*
X134963058Y-101049788D01*
X134963060Y-101049788D01*
X135004828Y-101038400D01*
X135080755Y-101017700D01*
X135190724Y-100950179D01*
X135205466Y-100933892D01*
X135272590Y-100859735D01*
X135272590Y-100859734D01*
X135277322Y-100854507D01*
X135333588Y-100738375D01*
X135352015Y-100628847D01*
X135354363Y-100614891D01*
X135354363Y-100614886D01*
X135354997Y-100611120D01*
X135355133Y-100600000D01*
X135340016Y-100494440D01*
X156644901Y-100494440D01*
X156645816Y-100501437D01*
X156645816Y-100501438D01*
X156647082Y-100511120D01*
X156661633Y-100622394D01*
X156664471Y-100628845D01*
X156664472Y-100628847D01*
X156708473Y-100728847D01*
X156713605Y-100740510D01*
X156755122Y-100789900D01*
X156792100Y-100833892D01*
X156792103Y-100833894D01*
X156796639Y-100839291D01*
X156904060Y-100910796D01*
X156910788Y-100912898D01*
X156910790Y-100912899D01*
X156965646Y-100930037D01*
X157027233Y-100949278D01*
X157091744Y-100950461D01*
X157149202Y-100951514D01*
X157149204Y-100951514D01*
X157156255Y-100951643D01*
X157163058Y-100949788D01*
X157163060Y-100949788D01*
X157221364Y-100933892D01*
X157280755Y-100917700D01*
X157390724Y-100850179D01*
X157477322Y-100754507D01*
X157533588Y-100638375D01*
X157554997Y-100511120D01*
X157555133Y-100500000D01*
X157536839Y-100372259D01*
X157483428Y-100254788D01*
X157399193Y-100157028D01*
X157393276Y-100153193D01*
X157393274Y-100153191D01*
X157296824Y-100090677D01*
X157290906Y-100086841D01*
X157284150Y-100084821D01*
X157284149Y-100084820D01*
X157241335Y-100072016D01*
X157167273Y-100049866D01*
X157090644Y-100049398D01*
X157045282Y-100049121D01*
X157038231Y-100049078D01*
X157031454Y-100051015D01*
X157031453Y-100051015D01*
X156920935Y-100082601D01*
X156920933Y-100082602D01*
X156914155Y-100084539D01*
X156805019Y-100153399D01*
X156719596Y-100250122D01*
X156664754Y-100366932D01*
X156644901Y-100494440D01*
X135340016Y-100494440D01*
X135336839Y-100472259D01*
X135283428Y-100354788D01*
X135199193Y-100257028D01*
X135193276Y-100253193D01*
X135193274Y-100253191D01*
X135096824Y-100190677D01*
X135090906Y-100186841D01*
X135084150Y-100184821D01*
X135084149Y-100184820D01*
X135009089Y-100162372D01*
X134967273Y-100149866D01*
X134890644Y-100149398D01*
X134845282Y-100149121D01*
X134838231Y-100149078D01*
X134831454Y-100151015D01*
X134831453Y-100151015D01*
X134720935Y-100182601D01*
X134720933Y-100182602D01*
X134714155Y-100184539D01*
X134605019Y-100253399D01*
X134519596Y-100350122D01*
X134464754Y-100466932D01*
X134444901Y-100594440D01*
X128700000Y-100594440D01*
X128700000Y-99094440D01*
X134444901Y-99094440D01*
X134445816Y-99101437D01*
X134445816Y-99101438D01*
X134447082Y-99111120D01*
X134461633Y-99222394D01*
X134464471Y-99228845D01*
X134464472Y-99228847D01*
X134471458Y-99244724D01*
X134513605Y-99340510D01*
X134555122Y-99389900D01*
X134592100Y-99433892D01*
X134592103Y-99433894D01*
X134596639Y-99439291D01*
X134704060Y-99510796D01*
X134710788Y-99512898D01*
X134710790Y-99512899D01*
X134765647Y-99530037D01*
X134827233Y-99549278D01*
X134891744Y-99550461D01*
X134949202Y-99551514D01*
X134949204Y-99551514D01*
X134956255Y-99551643D01*
X134963058Y-99549788D01*
X134963060Y-99549788D01*
X135004828Y-99538400D01*
X135080755Y-99517700D01*
X135190724Y-99450179D01*
X135277322Y-99354507D01*
X135333588Y-99238375D01*
X135352572Y-99125536D01*
X135354363Y-99114891D01*
X135354363Y-99114886D01*
X135354997Y-99111120D01*
X135355133Y-99100000D01*
X135354337Y-99094440D01*
X135844901Y-99094440D01*
X135845816Y-99101437D01*
X135845816Y-99101438D01*
X135847082Y-99111120D01*
X135861633Y-99222394D01*
X135864471Y-99228845D01*
X135864472Y-99228847D01*
X135871458Y-99244724D01*
X135913605Y-99340510D01*
X135955122Y-99389900D01*
X135992100Y-99433892D01*
X135992103Y-99433894D01*
X135996639Y-99439291D01*
X136104060Y-99510796D01*
X136110788Y-99512898D01*
X136110790Y-99512899D01*
X136165647Y-99530037D01*
X136227233Y-99549278D01*
X136291744Y-99550461D01*
X136349202Y-99551514D01*
X136349204Y-99551514D01*
X136356255Y-99551643D01*
X136363058Y-99549788D01*
X136363060Y-99549788D01*
X136404828Y-99538400D01*
X136480755Y-99517700D01*
X136590724Y-99450179D01*
X136677322Y-99354507D01*
X136733588Y-99238375D01*
X136752572Y-99125536D01*
X136754363Y-99114891D01*
X136754363Y-99114886D01*
X136754997Y-99111120D01*
X136755133Y-99100000D01*
X136754337Y-99094440D01*
X137344901Y-99094440D01*
X137345816Y-99101437D01*
X137345816Y-99101438D01*
X137347082Y-99111120D01*
X137361633Y-99222394D01*
X137364471Y-99228845D01*
X137364472Y-99228847D01*
X137371458Y-99244724D01*
X137413605Y-99340510D01*
X137455122Y-99389900D01*
X137492100Y-99433892D01*
X137492103Y-99433894D01*
X137496639Y-99439291D01*
X137604060Y-99510796D01*
X137610788Y-99512898D01*
X137610790Y-99512899D01*
X137665647Y-99530037D01*
X137727233Y-99549278D01*
X137791744Y-99550461D01*
X137849202Y-99551514D01*
X137849204Y-99551514D01*
X137856255Y-99551643D01*
X137863058Y-99549788D01*
X137863060Y-99549788D01*
X137904828Y-99538400D01*
X137980755Y-99517700D01*
X138090724Y-99450179D01*
X138177322Y-99354507D01*
X138233588Y-99238375D01*
X138252572Y-99125536D01*
X138254363Y-99114891D01*
X138254363Y-99114886D01*
X138254997Y-99111120D01*
X138255133Y-99100000D01*
X138254337Y-99094440D01*
X141244901Y-99094440D01*
X141245816Y-99101437D01*
X141245816Y-99101438D01*
X141247082Y-99111120D01*
X141261633Y-99222394D01*
X141264471Y-99228845D01*
X141264472Y-99228847D01*
X141271458Y-99244724D01*
X141313605Y-99340510D01*
X141355122Y-99389900D01*
X141392100Y-99433892D01*
X141392103Y-99433894D01*
X141396639Y-99439291D01*
X141504060Y-99510796D01*
X141510788Y-99512898D01*
X141510790Y-99512899D01*
X141565647Y-99530037D01*
X141627233Y-99549278D01*
X141691744Y-99550461D01*
X141749202Y-99551514D01*
X141749204Y-99551514D01*
X141756255Y-99551643D01*
X141763058Y-99549788D01*
X141763060Y-99549788D01*
X141804828Y-99538400D01*
X141880755Y-99517700D01*
X141990724Y-99450179D01*
X142077322Y-99354507D01*
X142133588Y-99238375D01*
X142134758Y-99231420D01*
X142134759Y-99231417D01*
X142153175Y-99121949D01*
X142161312Y-99106351D01*
X142157380Y-99093994D01*
X142339163Y-99093994D01*
X142339440Y-99094276D01*
X142348967Y-99125536D01*
X142361633Y-99222394D01*
X142364471Y-99228845D01*
X142364472Y-99228847D01*
X142371458Y-99244724D01*
X142413605Y-99340510D01*
X142455122Y-99389900D01*
X142492100Y-99433892D01*
X142492103Y-99433894D01*
X142496639Y-99439291D01*
X142604060Y-99510796D01*
X142610788Y-99512898D01*
X142610790Y-99512899D01*
X142665647Y-99530037D01*
X142727233Y-99549278D01*
X142791744Y-99550461D01*
X142849202Y-99551514D01*
X142849204Y-99551514D01*
X142856255Y-99551643D01*
X142863058Y-99549788D01*
X142863060Y-99549788D01*
X142904828Y-99538400D01*
X142980755Y-99517700D01*
X143090724Y-99450179D01*
X143177322Y-99354507D01*
X143233588Y-99238375D01*
X143252572Y-99125536D01*
X143254363Y-99114891D01*
X143254363Y-99114886D01*
X143254997Y-99111120D01*
X143255133Y-99100000D01*
X143254337Y-99094440D01*
X148744901Y-99094440D01*
X148745816Y-99101437D01*
X148745816Y-99101438D01*
X148747082Y-99111120D01*
X148761633Y-99222394D01*
X148764471Y-99228845D01*
X148764472Y-99228847D01*
X148771458Y-99244724D01*
X148813605Y-99340510D01*
X148855122Y-99389900D01*
X148892100Y-99433892D01*
X148892103Y-99433894D01*
X148896639Y-99439291D01*
X149004060Y-99510796D01*
X149010788Y-99512898D01*
X149010790Y-99512899D01*
X149065647Y-99530037D01*
X149127233Y-99549278D01*
X149191744Y-99550461D01*
X149249202Y-99551514D01*
X149249204Y-99551514D01*
X149256255Y-99551643D01*
X149263058Y-99549788D01*
X149263060Y-99549788D01*
X149304828Y-99538400D01*
X149380755Y-99517700D01*
X149490724Y-99450179D01*
X149577322Y-99354507D01*
X149633588Y-99238375D01*
X149634758Y-99231420D01*
X149634759Y-99231417D01*
X149653175Y-99121949D01*
X149661312Y-99106351D01*
X149657380Y-99093994D01*
X149839163Y-99093994D01*
X149839440Y-99094276D01*
X149848967Y-99125536D01*
X149861633Y-99222394D01*
X149864471Y-99228845D01*
X149864472Y-99228847D01*
X149871458Y-99244724D01*
X149913605Y-99340510D01*
X149955122Y-99389900D01*
X149992100Y-99433892D01*
X149992103Y-99433894D01*
X149996639Y-99439291D01*
X150104060Y-99510796D01*
X150110788Y-99512898D01*
X150110790Y-99512899D01*
X150165647Y-99530037D01*
X150227233Y-99549278D01*
X150291744Y-99550461D01*
X150349202Y-99551514D01*
X150349204Y-99551514D01*
X150356255Y-99551643D01*
X150363058Y-99549788D01*
X150363060Y-99549788D01*
X150404828Y-99538400D01*
X150480755Y-99517700D01*
X150590724Y-99450179D01*
X150677322Y-99354507D01*
X150733588Y-99238375D01*
X150752572Y-99125536D01*
X150754363Y-99114891D01*
X150754363Y-99114886D01*
X150754997Y-99111120D01*
X150755133Y-99100000D01*
X150754337Y-99094440D01*
X153744901Y-99094440D01*
X153745816Y-99101437D01*
X153745816Y-99101438D01*
X153747082Y-99111120D01*
X153761633Y-99222394D01*
X153764471Y-99228845D01*
X153764472Y-99228847D01*
X153771458Y-99244724D01*
X153813605Y-99340510D01*
X153855122Y-99389900D01*
X153892100Y-99433892D01*
X153892103Y-99433894D01*
X153896639Y-99439291D01*
X154004060Y-99510796D01*
X154010788Y-99512898D01*
X154010790Y-99512899D01*
X154065647Y-99530037D01*
X154127233Y-99549278D01*
X154191744Y-99550461D01*
X154249202Y-99551514D01*
X154249204Y-99551514D01*
X154256255Y-99551643D01*
X154263058Y-99549788D01*
X154263060Y-99549788D01*
X154304828Y-99538400D01*
X154380755Y-99517700D01*
X154490724Y-99450179D01*
X154577322Y-99354507D01*
X154633588Y-99238375D01*
X154652572Y-99125536D01*
X154654363Y-99114891D01*
X154654363Y-99114886D01*
X154654997Y-99111120D01*
X154655133Y-99100000D01*
X154654337Y-99094440D01*
X155144901Y-99094440D01*
X155145816Y-99101437D01*
X155145816Y-99101438D01*
X155147082Y-99111120D01*
X155161633Y-99222394D01*
X155164471Y-99228845D01*
X155164472Y-99228847D01*
X155171458Y-99244724D01*
X155213605Y-99340510D01*
X155255122Y-99389900D01*
X155292100Y-99433892D01*
X155292103Y-99433894D01*
X155296639Y-99439291D01*
X155404060Y-99510796D01*
X155410788Y-99512898D01*
X155410790Y-99512899D01*
X155465647Y-99530037D01*
X155527233Y-99549278D01*
X155591744Y-99550461D01*
X155649202Y-99551514D01*
X155649204Y-99551514D01*
X155656255Y-99551643D01*
X155663058Y-99549788D01*
X155663060Y-99549788D01*
X155704828Y-99538400D01*
X155780755Y-99517700D01*
X155890724Y-99450179D01*
X155977322Y-99354507D01*
X156033588Y-99238375D01*
X156052572Y-99125536D01*
X156054363Y-99114891D01*
X156054363Y-99114886D01*
X156054997Y-99111120D01*
X156055133Y-99100000D01*
X156054337Y-99094440D01*
X156644901Y-99094440D01*
X156645816Y-99101437D01*
X156645816Y-99101438D01*
X156647082Y-99111120D01*
X156661633Y-99222394D01*
X156664471Y-99228845D01*
X156664472Y-99228847D01*
X156671458Y-99244724D01*
X156713605Y-99340510D01*
X156755122Y-99389900D01*
X156792100Y-99433892D01*
X156792103Y-99433894D01*
X156796639Y-99439291D01*
X156904060Y-99510796D01*
X156910788Y-99512898D01*
X156910790Y-99512899D01*
X156965647Y-99530037D01*
X157027233Y-99549278D01*
X157091744Y-99550461D01*
X157149202Y-99551514D01*
X157149204Y-99551514D01*
X157156255Y-99551643D01*
X157163058Y-99549788D01*
X157163060Y-99549788D01*
X157204828Y-99538400D01*
X157280755Y-99517700D01*
X157390724Y-99450179D01*
X157477322Y-99354507D01*
X157533588Y-99238375D01*
X157552572Y-99125536D01*
X157554363Y-99114891D01*
X157554363Y-99114886D01*
X157554997Y-99111120D01*
X157555133Y-99100000D01*
X157536839Y-98972259D01*
X157483428Y-98854788D01*
X157399193Y-98757028D01*
X157393275Y-98753192D01*
X157393274Y-98753191D01*
X157322813Y-98707522D01*
X157290906Y-98686841D01*
X157284150Y-98684821D01*
X157284149Y-98684820D01*
X157241335Y-98672016D01*
X157167273Y-98649866D01*
X157090644Y-98649398D01*
X157045282Y-98649121D01*
X157038231Y-98649078D01*
X157031454Y-98651015D01*
X157031453Y-98651015D01*
X156920935Y-98682601D01*
X156920933Y-98682602D01*
X156914155Y-98684539D01*
X156805019Y-98753399D01*
X156719596Y-98850122D01*
X156664754Y-98966932D01*
X156644901Y-99094440D01*
X156054337Y-99094440D01*
X156036839Y-98972259D01*
X155983428Y-98854788D01*
X155899193Y-98757028D01*
X155893275Y-98753192D01*
X155893274Y-98753191D01*
X155822813Y-98707522D01*
X155790906Y-98686841D01*
X155784150Y-98684821D01*
X155784149Y-98684820D01*
X155741335Y-98672016D01*
X155667273Y-98649866D01*
X155590644Y-98649398D01*
X155545282Y-98649121D01*
X155538231Y-98649078D01*
X155531454Y-98651015D01*
X155531453Y-98651015D01*
X155420935Y-98682601D01*
X155420933Y-98682602D01*
X155414155Y-98684539D01*
X155305019Y-98753399D01*
X155219596Y-98850122D01*
X155164754Y-98966932D01*
X155144901Y-99094440D01*
X154654337Y-99094440D01*
X154636839Y-98972259D01*
X154583428Y-98854788D01*
X154499193Y-98757028D01*
X154493275Y-98753192D01*
X154493274Y-98753191D01*
X154422813Y-98707522D01*
X154390906Y-98686841D01*
X154384150Y-98684821D01*
X154384149Y-98684820D01*
X154341335Y-98672016D01*
X154267273Y-98649866D01*
X154190644Y-98649398D01*
X154145282Y-98649121D01*
X154138231Y-98649078D01*
X154131454Y-98651015D01*
X154131453Y-98651015D01*
X154020935Y-98682601D01*
X154020933Y-98682602D01*
X154014155Y-98684539D01*
X153905019Y-98753399D01*
X153819596Y-98850122D01*
X153764754Y-98966932D01*
X153744901Y-99094440D01*
X150754337Y-99094440D01*
X150736839Y-98972259D01*
X150683428Y-98854788D01*
X150599193Y-98757028D01*
X150593275Y-98753192D01*
X150593274Y-98753191D01*
X150522813Y-98707522D01*
X150490906Y-98686841D01*
X150484150Y-98684821D01*
X150484149Y-98684820D01*
X150441335Y-98672016D01*
X150367273Y-98649866D01*
X150290644Y-98649398D01*
X150245282Y-98649121D01*
X150238231Y-98649078D01*
X150231454Y-98651015D01*
X150231453Y-98651015D01*
X150120935Y-98682601D01*
X150120933Y-98682602D01*
X150114155Y-98684539D01*
X150005019Y-98753399D01*
X149919596Y-98850122D01*
X149864754Y-98966932D01*
X149863669Y-98973902D01*
X149847550Y-99077427D01*
X149839163Y-99093994D01*
X149657380Y-99093994D01*
X149651729Y-99076231D01*
X149637839Y-98979243D01*
X149636839Y-98972259D01*
X149583428Y-98854788D01*
X149499193Y-98757028D01*
X149493275Y-98753192D01*
X149493274Y-98753191D01*
X149422813Y-98707522D01*
X149390906Y-98686841D01*
X149384150Y-98684821D01*
X149384149Y-98684820D01*
X149341335Y-98672016D01*
X149267273Y-98649866D01*
X149190644Y-98649398D01*
X149145282Y-98649121D01*
X149138231Y-98649078D01*
X149131454Y-98651015D01*
X149131453Y-98651015D01*
X149020935Y-98682601D01*
X149020933Y-98682602D01*
X149014155Y-98684539D01*
X148905019Y-98753399D01*
X148819596Y-98850122D01*
X148764754Y-98966932D01*
X148744901Y-99094440D01*
X143254337Y-99094440D01*
X143236839Y-98972259D01*
X143183428Y-98854788D01*
X143099193Y-98757028D01*
X143093275Y-98753192D01*
X143093274Y-98753191D01*
X143022813Y-98707522D01*
X142990906Y-98686841D01*
X142984150Y-98684821D01*
X142984149Y-98684820D01*
X142941335Y-98672016D01*
X142867273Y-98649866D01*
X142790644Y-98649398D01*
X142745282Y-98649121D01*
X142738231Y-98649078D01*
X142731454Y-98651015D01*
X142731453Y-98651015D01*
X142620935Y-98682601D01*
X142620933Y-98682602D01*
X142614155Y-98684539D01*
X142505019Y-98753399D01*
X142419596Y-98850122D01*
X142364754Y-98966932D01*
X142363669Y-98973902D01*
X142347550Y-99077427D01*
X142339163Y-99093994D01*
X142157380Y-99093994D01*
X142151729Y-99076231D01*
X142137839Y-98979243D01*
X142136839Y-98972259D01*
X142083428Y-98854788D01*
X141999193Y-98757028D01*
X141993275Y-98753192D01*
X141993274Y-98753191D01*
X141922813Y-98707522D01*
X141890906Y-98686841D01*
X141884150Y-98684821D01*
X141884149Y-98684820D01*
X141841335Y-98672016D01*
X141767273Y-98649866D01*
X141690644Y-98649398D01*
X141645282Y-98649121D01*
X141638231Y-98649078D01*
X141631454Y-98651015D01*
X141631453Y-98651015D01*
X141520935Y-98682601D01*
X141520933Y-98682602D01*
X141514155Y-98684539D01*
X141405019Y-98753399D01*
X141319596Y-98850122D01*
X141264754Y-98966932D01*
X141244901Y-99094440D01*
X138254337Y-99094440D01*
X138236839Y-98972259D01*
X138183428Y-98854788D01*
X138099193Y-98757028D01*
X138093275Y-98753192D01*
X138093274Y-98753191D01*
X138022813Y-98707522D01*
X137990906Y-98686841D01*
X137984150Y-98684821D01*
X137984149Y-98684820D01*
X137941335Y-98672016D01*
X137867273Y-98649866D01*
X137790644Y-98649398D01*
X137745282Y-98649121D01*
X137738231Y-98649078D01*
X137731454Y-98651015D01*
X137731453Y-98651015D01*
X137620935Y-98682601D01*
X137620933Y-98682602D01*
X137614155Y-98684539D01*
X137505019Y-98753399D01*
X137419596Y-98850122D01*
X137364754Y-98966932D01*
X137344901Y-99094440D01*
X136754337Y-99094440D01*
X136736839Y-98972259D01*
X136683428Y-98854788D01*
X136599193Y-98757028D01*
X136593275Y-98753192D01*
X136593274Y-98753191D01*
X136522813Y-98707522D01*
X136490906Y-98686841D01*
X136484150Y-98684821D01*
X136484149Y-98684820D01*
X136441335Y-98672016D01*
X136367273Y-98649866D01*
X136290644Y-98649398D01*
X136245282Y-98649121D01*
X136238231Y-98649078D01*
X136231454Y-98651015D01*
X136231453Y-98651015D01*
X136120935Y-98682601D01*
X136120933Y-98682602D01*
X136114155Y-98684539D01*
X136005019Y-98753399D01*
X135919596Y-98850122D01*
X135864754Y-98966932D01*
X135844901Y-99094440D01*
X135354337Y-99094440D01*
X135336839Y-98972259D01*
X135283428Y-98854788D01*
X135199193Y-98757028D01*
X135123242Y-98707800D01*
X135084695Y-98660284D01*
X135081439Y-98599185D01*
X135114717Y-98547842D01*
X135125286Y-98540358D01*
X135128818Y-98538189D01*
X135190724Y-98500179D01*
X135277322Y-98404507D01*
X135333588Y-98288375D01*
X135354997Y-98161120D01*
X135355133Y-98150000D01*
X135336839Y-98022259D01*
X135283428Y-97904788D01*
X135199193Y-97807028D01*
X135193276Y-97803193D01*
X135193274Y-97803191D01*
X135096824Y-97740677D01*
X135090906Y-97736841D01*
X135084150Y-97734821D01*
X135084149Y-97734820D01*
X135041335Y-97722016D01*
X134967273Y-97699866D01*
X134890644Y-97699398D01*
X134845282Y-97699121D01*
X134838231Y-97699078D01*
X134831454Y-97701015D01*
X134831453Y-97701015D01*
X134720935Y-97732601D01*
X134720933Y-97732602D01*
X134714155Y-97734539D01*
X134605019Y-97803399D01*
X134519596Y-97900122D01*
X134464754Y-98016932D01*
X134444901Y-98144440D01*
X134445816Y-98151437D01*
X134445816Y-98151438D01*
X134447082Y-98161120D01*
X134461633Y-98272394D01*
X134464471Y-98278845D01*
X134464472Y-98278847D01*
X134471458Y-98294724D01*
X134513605Y-98390510D01*
X134555122Y-98439901D01*
X134592100Y-98483892D01*
X134592103Y-98483894D01*
X134596639Y-98489291D01*
X134602509Y-98493199D01*
X134602512Y-98493201D01*
X134677263Y-98542959D01*
X134715226Y-98590942D01*
X134717735Y-98652076D01*
X134683831Y-98703009D01*
X134675233Y-98709097D01*
X134605019Y-98753399D01*
X134519596Y-98850122D01*
X134464754Y-98966932D01*
X134444901Y-99094440D01*
X128700000Y-99094440D01*
X128700000Y-97011069D01*
X139815164Y-97011069D01*
X139817727Y-97050179D01*
X139824085Y-97147175D01*
X139828392Y-97212894D01*
X139878178Y-97408928D01*
X139962856Y-97592607D01*
X140079588Y-97757780D01*
X140224466Y-97898913D01*
X140392637Y-98011282D01*
X140578470Y-98091122D01*
X140775740Y-98135760D01*
X140977842Y-98143700D01*
X141031377Y-98135938D01*
X141173519Y-98115329D01*
X141173522Y-98115328D01*
X141178007Y-98114678D01*
X141273769Y-98082171D01*
X141365234Y-98051123D01*
X141365237Y-98051121D01*
X141369531Y-98049664D01*
X141546001Y-97950837D01*
X141701505Y-97821505D01*
X141830837Y-97666001D01*
X141929664Y-97489531D01*
X141994678Y-97298007D01*
X142023700Y-97097842D01*
X142024852Y-97053871D01*
X142025139Y-97042913D01*
X142025139Y-97042908D01*
X142025215Y-97040000D01*
X142022557Y-97011069D01*
X144895164Y-97011069D01*
X144897727Y-97050179D01*
X144904085Y-97147175D01*
X144908392Y-97212894D01*
X144958178Y-97408928D01*
X145042856Y-97592607D01*
X145159588Y-97757780D01*
X145304466Y-97898913D01*
X145472637Y-98011282D01*
X145658470Y-98091122D01*
X145855740Y-98135760D01*
X146057842Y-98143700D01*
X146111377Y-98135938D01*
X146253519Y-98115329D01*
X146253522Y-98115328D01*
X146258007Y-98114678D01*
X146353769Y-98082171D01*
X146445234Y-98051123D01*
X146445237Y-98051121D01*
X146449531Y-98049664D01*
X146626001Y-97950837D01*
X146781505Y-97821505D01*
X146910837Y-97666001D01*
X147009664Y-97489531D01*
X147074678Y-97298007D01*
X147103700Y-97097842D01*
X147104852Y-97053871D01*
X147105139Y-97042913D01*
X147105139Y-97042908D01*
X147105215Y-97040000D01*
X147102557Y-97011069D01*
X149975164Y-97011069D01*
X149977727Y-97050179D01*
X149984085Y-97147175D01*
X149988392Y-97212894D01*
X150038178Y-97408928D01*
X150122856Y-97592607D01*
X150239588Y-97757780D01*
X150384466Y-97898913D01*
X150552637Y-98011282D01*
X150738470Y-98091122D01*
X150935740Y-98135760D01*
X151137842Y-98143700D01*
X151191377Y-98135938D01*
X151333519Y-98115329D01*
X151333522Y-98115328D01*
X151338007Y-98114678D01*
X151433769Y-98082171D01*
X151525234Y-98051123D01*
X151525237Y-98051121D01*
X151529531Y-98049664D01*
X151706001Y-97950837D01*
X151861505Y-97821505D01*
X151990837Y-97666001D01*
X152089664Y-97489531D01*
X152154678Y-97298007D01*
X152183700Y-97097842D01*
X152184852Y-97053871D01*
X152185139Y-97042913D01*
X152185139Y-97042908D01*
X152185215Y-97040000D01*
X152166708Y-96838591D01*
X152126053Y-96694440D01*
X155394901Y-96694440D01*
X155395816Y-96701437D01*
X155395816Y-96701438D01*
X155397082Y-96711120D01*
X155411633Y-96822394D01*
X155414471Y-96828845D01*
X155414472Y-96828847D01*
X155421458Y-96844724D01*
X155463605Y-96940510D01*
X155505122Y-96989901D01*
X155542100Y-97033892D01*
X155542103Y-97033894D01*
X155546639Y-97039291D01*
X155654060Y-97110796D01*
X155660788Y-97112898D01*
X155660790Y-97112899D01*
X155715646Y-97130037D01*
X155777233Y-97149278D01*
X155841744Y-97150461D01*
X155899202Y-97151514D01*
X155899204Y-97151514D01*
X155906255Y-97151643D01*
X155913058Y-97149788D01*
X155913060Y-97149788D01*
X155954828Y-97138400D01*
X156030755Y-97117700D01*
X156140724Y-97050179D01*
X156176125Y-97011069D01*
X156222590Y-96959735D01*
X156222590Y-96959734D01*
X156227322Y-96954507D01*
X156283588Y-96838375D01*
X156304997Y-96711120D01*
X156305133Y-96700000D01*
X156286839Y-96572259D01*
X156233428Y-96454788D01*
X156149193Y-96357028D01*
X156143276Y-96353193D01*
X156143274Y-96353191D01*
X156046824Y-96290677D01*
X156040906Y-96286841D01*
X156034150Y-96284821D01*
X156034149Y-96284820D01*
X155991335Y-96272016D01*
X155917273Y-96249866D01*
X155840644Y-96249398D01*
X155795282Y-96249121D01*
X155788231Y-96249078D01*
X155781454Y-96251015D01*
X155781453Y-96251015D01*
X155670935Y-96282601D01*
X155670933Y-96282602D01*
X155664155Y-96284539D01*
X155555019Y-96353399D01*
X155469596Y-96450122D01*
X155414754Y-96566932D01*
X155394901Y-96694440D01*
X152126053Y-96694440D01*
X152111807Y-96643926D01*
X152022351Y-96462527D01*
X151901335Y-96300467D01*
X151752812Y-96163174D01*
X151730789Y-96149278D01*
X151585594Y-96057667D01*
X151581757Y-96055246D01*
X151393898Y-95980298D01*
X151195526Y-95940839D01*
X151095930Y-95939535D01*
X150997826Y-95938251D01*
X150997821Y-95938251D01*
X150993286Y-95938192D01*
X150988813Y-95938961D01*
X150988808Y-95938961D01*
X150898337Y-95954507D01*
X150793949Y-95972444D01*
X150604193Y-96042449D01*
X150600290Y-96044771D01*
X150591200Y-96050179D01*
X150430371Y-96145862D01*
X150426956Y-96148857D01*
X150426953Y-96148859D01*
X150410630Y-96163174D01*
X150278305Y-96279220D01*
X150275497Y-96282782D01*
X150216967Y-96357028D01*
X150153089Y-96438057D01*
X150058914Y-96617053D01*
X150057569Y-96621384D01*
X150057568Y-96621387D01*
X150029706Y-96711120D01*
X149998937Y-96810213D01*
X149975164Y-97011069D01*
X147102557Y-97011069D01*
X147086708Y-96838591D01*
X147031807Y-96643926D01*
X146942351Y-96462527D01*
X146821335Y-96300467D01*
X146672812Y-96163174D01*
X146650789Y-96149278D01*
X146505594Y-96057667D01*
X146501757Y-96055246D01*
X146313898Y-95980298D01*
X146115526Y-95940839D01*
X146015930Y-95939535D01*
X145917826Y-95938251D01*
X145917821Y-95938251D01*
X145913286Y-95938192D01*
X145908813Y-95938961D01*
X145908808Y-95938961D01*
X145818337Y-95954507D01*
X145713949Y-95972444D01*
X145524193Y-96042449D01*
X145520290Y-96044771D01*
X145511200Y-96050179D01*
X145350371Y-96145862D01*
X145346956Y-96148857D01*
X145346953Y-96148859D01*
X145330630Y-96163174D01*
X145198305Y-96279220D01*
X145195497Y-96282782D01*
X145136967Y-96357028D01*
X145073089Y-96438057D01*
X144978914Y-96617053D01*
X144977569Y-96621384D01*
X144977568Y-96621387D01*
X144949706Y-96711120D01*
X144918937Y-96810213D01*
X144895164Y-97011069D01*
X142022557Y-97011069D01*
X142006708Y-96838591D01*
X141951807Y-96643926D01*
X141862351Y-96462527D01*
X141741335Y-96300467D01*
X141592812Y-96163174D01*
X141570789Y-96149278D01*
X141425594Y-96057667D01*
X141421757Y-96055246D01*
X141233898Y-95980298D01*
X141035526Y-95940839D01*
X140935930Y-95939535D01*
X140837826Y-95938251D01*
X140837821Y-95938251D01*
X140833286Y-95938192D01*
X140828813Y-95938961D01*
X140828808Y-95938961D01*
X140738337Y-95954507D01*
X140633949Y-95972444D01*
X140444193Y-96042449D01*
X140440290Y-96044771D01*
X140431200Y-96050179D01*
X140270371Y-96145862D01*
X140266956Y-96148857D01*
X140266953Y-96148859D01*
X140250630Y-96163174D01*
X140118305Y-96279220D01*
X140115497Y-96282782D01*
X140056967Y-96357028D01*
X139993089Y-96438057D01*
X139898914Y-96617053D01*
X139897569Y-96621384D01*
X139897568Y-96621387D01*
X139869706Y-96711120D01*
X139838937Y-96810213D01*
X139815164Y-97011069D01*
X128700000Y-97011069D01*
X128700000Y-95694440D01*
X154244901Y-95694440D01*
X154245816Y-95701437D01*
X154245816Y-95701438D01*
X154247082Y-95711120D01*
X154261633Y-95822394D01*
X154264471Y-95828845D01*
X154264472Y-95828847D01*
X154271458Y-95844724D01*
X154313605Y-95940510D01*
X154341768Y-95974014D01*
X154392100Y-96033892D01*
X154392103Y-96033894D01*
X154396639Y-96039291D01*
X154504060Y-96110796D01*
X154510788Y-96112898D01*
X154510790Y-96112899D01*
X154565646Y-96130037D01*
X154627233Y-96149278D01*
X154691744Y-96150460D01*
X154749202Y-96151514D01*
X154749204Y-96151514D01*
X154756255Y-96151643D01*
X154763058Y-96149788D01*
X154763060Y-96149788D01*
X154804828Y-96138400D01*
X154880755Y-96117700D01*
X154990724Y-96050179D01*
X155061086Y-95972444D01*
X155072590Y-95959735D01*
X155072590Y-95959734D01*
X155077322Y-95954507D01*
X155133588Y-95838375D01*
X155154997Y-95711120D01*
X155155133Y-95700000D01*
X155136839Y-95572259D01*
X155083428Y-95454788D01*
X154999193Y-95357028D01*
X154993276Y-95353193D01*
X154993274Y-95353191D01*
X154919538Y-95305399D01*
X154880991Y-95257883D01*
X154877735Y-95196784D01*
X154879254Y-95194440D01*
X158044901Y-95194440D01*
X158045816Y-95201437D01*
X158045816Y-95201438D01*
X158047082Y-95211120D01*
X158061633Y-95322394D01*
X158064471Y-95328845D01*
X158064472Y-95328847D01*
X158110764Y-95434054D01*
X158113605Y-95440510D01*
X158131007Y-95461212D01*
X158192100Y-95533892D01*
X158192103Y-95533894D01*
X158196639Y-95539291D01*
X158304060Y-95610796D01*
X158310788Y-95612898D01*
X158310790Y-95612899D01*
X158365647Y-95630037D01*
X158427233Y-95649278D01*
X158491744Y-95650461D01*
X158549202Y-95651514D01*
X158549204Y-95651514D01*
X158556255Y-95651643D01*
X158563058Y-95649788D01*
X158563060Y-95649788D01*
X158604828Y-95638400D01*
X158680755Y-95617700D01*
X158790724Y-95550179D01*
X158877322Y-95454507D01*
X158933588Y-95338375D01*
X158947497Y-95255700D01*
X158954363Y-95214891D01*
X158954363Y-95214886D01*
X158954997Y-95211120D01*
X158955133Y-95200000D01*
X158936839Y-95072259D01*
X158891433Y-94972394D01*
X158886349Y-94961212D01*
X158886348Y-94961211D01*
X158883428Y-94954788D01*
X158799193Y-94857028D01*
X158793276Y-94853193D01*
X158793274Y-94853191D01*
X158696824Y-94790677D01*
X158690906Y-94786841D01*
X158684150Y-94784821D01*
X158684149Y-94784820D01*
X158641335Y-94772016D01*
X158567273Y-94749866D01*
X158490644Y-94749398D01*
X158445282Y-94749121D01*
X158438231Y-94749078D01*
X158431454Y-94751015D01*
X158431453Y-94751015D01*
X158320935Y-94782601D01*
X158320933Y-94782602D01*
X158314155Y-94784539D01*
X158205019Y-94853399D01*
X158119596Y-94950122D01*
X158064754Y-95066932D01*
X158044901Y-95194440D01*
X154879254Y-95194440D01*
X154911014Y-95145440D01*
X154947344Y-95126809D01*
X154947768Y-95126693D01*
X154980755Y-95117700D01*
X155090724Y-95050179D01*
X155105466Y-95033892D01*
X155172590Y-94959735D01*
X155172590Y-94959734D01*
X155177322Y-94954507D01*
X155224551Y-94857028D01*
X155230512Y-94844724D01*
X155230512Y-94844723D01*
X155233588Y-94838375D01*
X155248285Y-94751015D01*
X155254363Y-94714891D01*
X155254363Y-94714886D01*
X155254997Y-94711120D01*
X155255133Y-94700000D01*
X155236839Y-94572259D01*
X155183428Y-94454788D01*
X155099193Y-94357028D01*
X155093276Y-94353193D01*
X155093274Y-94353191D01*
X154996824Y-94290677D01*
X154990906Y-94286841D01*
X154984150Y-94284821D01*
X154984149Y-94284820D01*
X154941335Y-94272016D01*
X154867273Y-94249866D01*
X154790644Y-94249398D01*
X154745282Y-94249121D01*
X154738231Y-94249078D01*
X154731454Y-94251015D01*
X154731453Y-94251015D01*
X154620935Y-94282601D01*
X154620933Y-94282602D01*
X154614155Y-94284539D01*
X154505019Y-94353399D01*
X154419596Y-94450122D01*
X154364754Y-94566932D01*
X154344901Y-94694440D01*
X154345816Y-94701437D01*
X154345816Y-94701438D01*
X154347082Y-94711120D01*
X154361633Y-94822394D01*
X154364471Y-94828845D01*
X154364472Y-94828847D01*
X154380332Y-94864891D01*
X154413605Y-94940510D01*
X154445831Y-94978847D01*
X154492100Y-95033892D01*
X154492103Y-95033894D01*
X154496639Y-95039291D01*
X154563886Y-95084054D01*
X154581305Y-95095649D01*
X154619269Y-95143633D01*
X154621778Y-95204767D01*
X154587874Y-95255700D01*
X154553654Y-95273249D01*
X154520940Y-95282599D01*
X154520935Y-95282601D01*
X154514155Y-95284539D01*
X154405019Y-95353399D01*
X154319596Y-95450122D01*
X154264754Y-95566932D01*
X154244901Y-95694440D01*
X128700000Y-95694440D01*
X128700000Y-93894440D01*
X134244901Y-93894440D01*
X134245816Y-93901437D01*
X134245816Y-93901438D01*
X134247082Y-93911120D01*
X134261633Y-94022394D01*
X134264471Y-94028845D01*
X134264472Y-94028847D01*
X134271458Y-94044724D01*
X134313605Y-94140510D01*
X134355122Y-94189901D01*
X134392100Y-94233892D01*
X134392103Y-94233894D01*
X134396639Y-94239291D01*
X134504060Y-94310796D01*
X134510790Y-94312898D01*
X134510797Y-94312902D01*
X134551277Y-94325549D01*
X134601182Y-94360949D01*
X134620748Y-94418922D01*
X134602501Y-94477323D01*
X134585917Y-94495437D01*
X134580984Y-94499635D01*
X134575019Y-94503399D01*
X134489596Y-94600122D01*
X134434754Y-94716932D01*
X134414901Y-94844440D01*
X134415816Y-94851437D01*
X134415816Y-94851438D01*
X134416764Y-94858684D01*
X134431633Y-94972394D01*
X134434471Y-94978845D01*
X134434472Y-94978847D01*
X134473230Y-95066932D01*
X134483605Y-95090510D01*
X134525122Y-95139900D01*
X134562100Y-95183892D01*
X134562103Y-95183894D01*
X134566639Y-95189291D01*
X134674060Y-95260796D01*
X134680788Y-95262898D01*
X134680790Y-95262899D01*
X134735647Y-95280037D01*
X134797233Y-95299278D01*
X134861744Y-95300461D01*
X134919202Y-95301514D01*
X134919204Y-95301514D01*
X134926255Y-95301643D01*
X134933058Y-95299788D01*
X134933060Y-95299788D01*
X134988991Y-95284539D01*
X135050755Y-95267700D01*
X135160724Y-95200179D01*
X135235380Y-95117700D01*
X135242590Y-95109735D01*
X135242590Y-95109734D01*
X135247322Y-95104507D01*
X135303588Y-94988375D01*
X135324997Y-94861120D01*
X135325133Y-94850000D01*
X135306839Y-94722259D01*
X135253428Y-94604788D01*
X135169193Y-94507028D01*
X135163276Y-94503193D01*
X135163274Y-94503191D01*
X135066824Y-94440677D01*
X135060906Y-94436841D01*
X135034749Y-94429018D01*
X135019943Y-94424590D01*
X134969610Y-94389801D01*
X134949338Y-94332072D01*
X134966871Y-94273452D01*
X134984911Y-94253748D01*
X134990724Y-94250179D01*
X135077322Y-94154507D01*
X135133588Y-94038375D01*
X135154997Y-93911120D01*
X135155133Y-93900000D01*
X135136839Y-93772259D01*
X135083428Y-93654788D01*
X134999193Y-93557028D01*
X134993276Y-93553193D01*
X134993274Y-93553191D01*
X134896824Y-93490677D01*
X134890906Y-93486841D01*
X134884150Y-93484821D01*
X134884149Y-93484820D01*
X134841335Y-93472016D01*
X134767273Y-93449866D01*
X134690644Y-93449398D01*
X134645282Y-93449121D01*
X134638231Y-93449078D01*
X134631454Y-93451015D01*
X134631453Y-93451015D01*
X134520935Y-93482601D01*
X134520933Y-93482602D01*
X134514155Y-93484539D01*
X134405019Y-93553399D01*
X134319596Y-93650122D01*
X134264754Y-93766932D01*
X134244901Y-93894440D01*
X128700000Y-93894440D01*
X128700000Y-93294440D01*
X154344901Y-93294440D01*
X154345816Y-93301437D01*
X154345816Y-93301438D01*
X154347082Y-93311120D01*
X154361633Y-93422394D01*
X154364471Y-93428845D01*
X154364472Y-93428847D01*
X154388977Y-93484539D01*
X154413605Y-93540510D01*
X154431982Y-93562372D01*
X154492100Y-93633892D01*
X154492103Y-93633894D01*
X154496639Y-93639291D01*
X154604060Y-93710796D01*
X154610788Y-93712898D01*
X154610790Y-93712899D01*
X154665647Y-93730037D01*
X154727233Y-93749278D01*
X154791744Y-93750460D01*
X154849202Y-93751514D01*
X154849204Y-93751514D01*
X154856255Y-93751643D01*
X154863058Y-93749788D01*
X154863060Y-93749788D01*
X154904828Y-93738400D01*
X154980755Y-93717700D01*
X155080423Y-93656504D01*
X155084711Y-93653871D01*
X155090724Y-93650179D01*
X155095459Y-93644948D01*
X155172590Y-93559735D01*
X155172590Y-93559734D01*
X155177322Y-93554507D01*
X155228021Y-93449866D01*
X155230512Y-93444724D01*
X155230512Y-93444723D01*
X155233588Y-93438375D01*
X155254997Y-93311120D01*
X155255133Y-93300000D01*
X155236839Y-93172259D01*
X155183428Y-93054788D01*
X155099193Y-92957028D01*
X155093276Y-92953193D01*
X155093274Y-92953191D01*
X154996824Y-92890677D01*
X154990906Y-92886841D01*
X154984150Y-92884821D01*
X154984149Y-92884820D01*
X154927687Y-92867934D01*
X154867273Y-92849866D01*
X154790644Y-92849398D01*
X154745282Y-92849121D01*
X154738231Y-92849078D01*
X154731454Y-92851015D01*
X154731453Y-92851015D01*
X154620935Y-92882601D01*
X154620933Y-92882602D01*
X154614155Y-92884539D01*
X154505019Y-92953399D01*
X154419596Y-93050122D01*
X154364754Y-93166932D01*
X154344901Y-93294440D01*
X128700000Y-93294440D01*
X128700000Y-91931069D01*
X139815164Y-91931069D01*
X139828392Y-92132894D01*
X139878178Y-92328928D01*
X139962856Y-92512607D01*
X140079588Y-92677780D01*
X140224466Y-92818913D01*
X140392637Y-92931282D01*
X140578470Y-93011122D01*
X140775740Y-93055760D01*
X140977842Y-93063700D01*
X141031377Y-93055938D01*
X141173519Y-93035329D01*
X141173522Y-93035328D01*
X141178007Y-93034678D01*
X141273769Y-93002171D01*
X141365234Y-92971123D01*
X141365237Y-92971121D01*
X141369531Y-92969664D01*
X141546001Y-92870837D01*
X141701505Y-92741505D01*
X141830837Y-92586001D01*
X141929664Y-92409531D01*
X141994678Y-92218007D01*
X142023700Y-92017842D01*
X142025215Y-91960000D01*
X142022557Y-91931069D01*
X144895164Y-91931069D01*
X144908392Y-92132894D01*
X144958178Y-92328928D01*
X145042856Y-92512607D01*
X145159588Y-92677780D01*
X145304466Y-92818913D01*
X145472637Y-92931282D01*
X145658470Y-93011122D01*
X145855740Y-93055760D01*
X146057842Y-93063700D01*
X146111377Y-93055938D01*
X146253519Y-93035329D01*
X146253522Y-93035328D01*
X146258007Y-93034678D01*
X146353769Y-93002171D01*
X146445234Y-92971123D01*
X146445237Y-92971121D01*
X146449531Y-92969664D01*
X146626001Y-92870837D01*
X146781505Y-92741505D01*
X146910837Y-92586001D01*
X147009664Y-92409531D01*
X147074678Y-92218007D01*
X147103700Y-92017842D01*
X147105215Y-91960000D01*
X147102557Y-91931069D01*
X149975164Y-91931069D01*
X149988392Y-92132894D01*
X150038178Y-92328928D01*
X150122856Y-92512607D01*
X150239588Y-92677780D01*
X150384466Y-92818913D01*
X150552637Y-92931282D01*
X150738470Y-93011122D01*
X150935740Y-93055760D01*
X151137842Y-93063700D01*
X151191377Y-93055938D01*
X151333519Y-93035329D01*
X151333522Y-93035328D01*
X151338007Y-93034678D01*
X151433769Y-93002171D01*
X151525234Y-92971123D01*
X151525237Y-92971121D01*
X151529531Y-92969664D01*
X151706001Y-92870837D01*
X151861505Y-92741505D01*
X151990837Y-92586001D01*
X152089664Y-92409531D01*
X152154678Y-92218007D01*
X152183700Y-92017842D01*
X152185215Y-91960000D01*
X152166708Y-91758591D01*
X152111807Y-91563926D01*
X152022351Y-91382527D01*
X151901335Y-91220467D01*
X151752812Y-91083174D01*
X151730125Y-91068859D01*
X151585594Y-90977667D01*
X151581757Y-90975246D01*
X151393898Y-90900298D01*
X151195526Y-90860839D01*
X151095930Y-90859535D01*
X150997826Y-90858251D01*
X150997821Y-90858251D01*
X150993286Y-90858192D01*
X150988813Y-90858961D01*
X150988808Y-90858961D01*
X150890245Y-90875898D01*
X150793949Y-90892444D01*
X150604193Y-90962449D01*
X150430371Y-91065862D01*
X150426956Y-91068857D01*
X150426953Y-91068859D01*
X150410630Y-91083174D01*
X150278305Y-91199220D01*
X150153089Y-91358057D01*
X150058914Y-91537053D01*
X149998937Y-91730213D01*
X149975164Y-91931069D01*
X147102557Y-91931069D01*
X147086708Y-91758591D01*
X147031807Y-91563926D01*
X146942351Y-91382527D01*
X146821335Y-91220467D01*
X146672812Y-91083174D01*
X146650125Y-91068859D01*
X146505594Y-90977667D01*
X146501757Y-90975246D01*
X146313898Y-90900298D01*
X146115526Y-90860839D01*
X146015930Y-90859535D01*
X145917826Y-90858251D01*
X145917821Y-90858251D01*
X145913286Y-90858192D01*
X145908813Y-90858961D01*
X145908808Y-90858961D01*
X145810245Y-90875898D01*
X145713949Y-90892444D01*
X145524193Y-90962449D01*
X145350371Y-91065862D01*
X145346956Y-91068857D01*
X145346953Y-91068859D01*
X145330630Y-91083174D01*
X145198305Y-91199220D01*
X145073089Y-91358057D01*
X144978914Y-91537053D01*
X144918937Y-91730213D01*
X144895164Y-91931069D01*
X142022557Y-91931069D01*
X142006708Y-91758591D01*
X141951807Y-91563926D01*
X141862351Y-91382527D01*
X141741335Y-91220467D01*
X141592812Y-91083174D01*
X141570125Y-91068859D01*
X141425594Y-90977667D01*
X141421757Y-90975246D01*
X141233898Y-90900298D01*
X141035526Y-90860839D01*
X140935930Y-90859535D01*
X140837826Y-90858251D01*
X140837821Y-90858251D01*
X140833286Y-90858192D01*
X140828813Y-90858961D01*
X140828808Y-90858961D01*
X140730245Y-90875898D01*
X140633949Y-90892444D01*
X140444193Y-90962449D01*
X140270371Y-91065862D01*
X140266956Y-91068857D01*
X140266953Y-91068859D01*
X140250630Y-91083174D01*
X140118305Y-91199220D01*
X139993089Y-91358057D01*
X139898914Y-91537053D01*
X139838937Y-91730213D01*
X139815164Y-91931069D01*
X128700000Y-91931069D01*
X128700000Y-90033960D01*
X128702518Y-90011773D01*
X128702645Y-90011222D01*
X128702645Y-90011221D01*
X128705143Y-90000358D01*
X128702683Y-89989485D01*
X128702701Y-89979203D01*
X128701785Y-89968216D01*
X128717294Y-89692051D01*
X128718537Y-89681019D01*
X128721251Y-89665050D01*
X128769270Y-89382428D01*
X128771740Y-89371604D01*
X128855588Y-89080560D01*
X128859255Y-89070082D01*
X128975160Y-88790261D01*
X128979977Y-88780258D01*
X129126482Y-88515179D01*
X129132388Y-88505779D01*
X129307654Y-88258764D01*
X129314576Y-88250084D01*
X129516396Y-88024247D01*
X129524247Y-88016396D01*
X129750084Y-87814576D01*
X129758764Y-87807654D01*
X130005779Y-87632388D01*
X130015179Y-87626482D01*
X130029308Y-87618673D01*
X130280264Y-87479974D01*
X130290261Y-87475160D01*
X130570082Y-87359255D01*
X130580555Y-87355590D01*
X130772062Y-87300417D01*
X130871604Y-87271740D01*
X130882428Y-87269270D01*
X130970605Y-87254288D01*
X131181024Y-87218536D01*
X131192046Y-87217295D01*
X131467703Y-87201814D01*
X131477630Y-87202659D01*
X131477630Y-87202625D01*
X131488777Y-87202645D01*
X131499642Y-87205143D01*
X131510514Y-87202683D01*
X131510516Y-87202683D01*
X131511583Y-87202441D01*
X131533432Y-87200000D01*
X160466040Y-87200000D01*
X160488227Y-87202518D01*
G37*
%TD.AperFunction*%
%TD*%
M02*
