M48
; DRILL file {KiCad (5.99.0-12750-ge81b516a82)} date Wed Nov 10 18:22:49 2021
; FORMAT={-:-/ absolute / inch / decimal}
; #@! TF.CreationDate,2021-11-10T18:22:49+01:00
; #@! TF.GenerationSoftware,Kicad,Pcbnew,(5.99.0-12750-ge81b516a82)
; #@! TF.FileFunction,Plated,1,4,PTH
FMAT,2
INCH
; #@! TA.AperFunction,Plated,PTH,ViaDrill
T1C0.0118
; #@! TA.AperFunction,Plated,PTH,ComponentDrill
T2C0.0354
; #@! TA.AperFunction,Plated,PTH,ComponentDrill
T3C0.1378
%
G90
G05
T1
X5.1339Y-4.3386
X5.1339Y-4.3819
X5.1339Y-4.4252
X5.1339Y-4.4685
X5.1339Y-4.5118
X5.1339Y-4.5551
X5.1772Y-4.3386
X5.1772Y-4.5551
X5.2205Y-4.3386
X5.2205Y-4.5551
X5.3031Y-3.6969
X5.3098Y-3.7343
X5.311Y-3.8642
X5.311Y-3.9016
X5.311Y-3.9606
X5.311Y-4.0157
X5.311Y-4.1693
X5.311Y-4.2126
X5.311Y-4.6614
X5.311Y-4.7205
X5.311Y-4.7756
X5.3661Y-3.9016
X5.3701Y-4.7756
X5.4252Y-3.9016
X5.4252Y-4.7756
X5.4331Y-4.1299
X5.4331Y-4.2244
X5.5341Y-4.0236
X5.5787Y-3.9016
X5.5787Y-4.7756
X5.622Y-3.9016
X5.622Y-4.7756
X5.6772Y-4.8425
X5.685Y-4.8031
X5.7224Y-4.878
X5.811Y-4.1299
X5.811Y-4.2244
X5.8145Y-4.8021
X5.8268Y-4.8268
X5.874Y-3.9016
X5.874Y-4.7756
X5.8858Y-4.437
X5.912Y-4.0236
X5.9173Y-3.9016
X5.9173Y-4.7756
X5.9213Y-4.5305
X6.0709Y-3.9016
X6.0709Y-4.7756
X6.0906Y-3.7677
X6.0945Y-3.6732
X6.0945Y-3.7283
X6.126Y-3.9016
X6.1299Y-4.7756
X6.1358Y-3.8071
X6.185Y-3.9016
X6.185Y-3.9567
X6.185Y-4.0157
X6.185Y-4.1693
X6.185Y-4.2126
X6.185Y-4.6614
X6.185Y-4.7165
X6.185Y-4.7756
X6.2362Y-3.878
X6.2402Y-3.748
X6.2717Y-3.8425
X6.2717Y-3.878
T2
X5.548Y-3.6205
X5.548Y-3.8205
X5.748Y-3.6205
X5.748Y-3.8205
X5.948Y-3.6205
X5.948Y-3.8205
T3
X5.374Y-5.0197
X6.124Y-5.0197
T0
M30
